<svg version="1.2" viewBox="0 0 16 16" xmlns="http://www.w3.org/2000/svg"><path d="M8,1h1v1H8z M9,1h1v1H9z M10,1h1v1H10z M6,2h1v1H6z M7,2h1v1H7z M11,2h1v1H11z M12,3h1v1H12z M2,4h1v1H2z M3,4h1v1H3z M13,4h1v1H13z M0,5h1v1H0z M1,5h1v1H1z M14,5h1v1H14z M0,6h1v1H0z M0,7h1v1H0z M1,7h1v1H1z M1,8h1v1H1z" fill="#003a50" /><path d="M8,2h1v1H8z M10,2h1v1H10z M7,3h1v1H7z M10,3h1v1H10z M11,3h1v1H11z M9,4h1v1H9z M11,4h1v1H11z M12,4h1v1H12z M3,5h1v1H3z M10,5h1v1H10z M13,5h1v1H13z M2,6h1v1H2z M12,6h1v1H12z M13,6h1v1H13z M3,7h1v1H3z M5,7h1v1H5z M11,7h1v1H11z M4,8h1v1H4z M5,9h1v1H5z M7,9h1v1H7z" fill="#00556a" /><path d="M9,2h1v1H9z M8,3h1v1H8z M2,5h1v1H2z M4,5h1v1H4z M12,5h1v1H12z M1,6h1v1H1z M3,6h1v1H3z M5,6h1v1H5z M11,6h1v1H11z M6,7h1v1H6z M7,8h1v1H7z M6,9h1v1H6z M14,9h1v1H14z M12,10h1v1H12z M10,11h1v1H10z M8,12h1v1H8z M6,13h1v1H6z" fill="#004c61" /><path d="M4,3h1v1H4z M5,3h1v1H5z" fill="#007000" /><path d="M6,3h1v1H6z M4,4h1v1H4z M8,5h1v1H8z M6,6h1v1H6z M10,7h1v1H10z M10,9h1v1H10z M8,10h1v1H8z" fill="#ffca00" /><path d="M9,3h1v1H9z M8,4h1v1H8z M10,4h1v1H10z M9,5h1v1H9z M11,5h1v1H11z M4,6h1v1H4z M10,6h1v1H10z M14,6h1v1H14z M15,6h1v1H15z M2,7h1v1H2z M4,7h1v1H4z M12,7h1v1H12z M13,7h1v1H13z M3,8h1v1H3z M5,8h1v1H5z M6,8h1v1H6z M11,8h1v1H11z M1,9h1v1H1z M4,9h1v1H4z M15,9h1v1H15z M2,10h1v1H2z M5,10h1v1H5z M6,10h1v1H6z M7,10h1v1H7z M13,10h1v1H13z M3,11h1v1H3z M11,11h1v1H11z M4,12h1v1H4z M9,12h1v1H9z M5,13h1v1H5z M7,13h1v1H7z" fill="#003e55" /><path d="M5,4h1v1H5z M6,4h1v1H6z M7,6h1v1H7z M8,6h1v1H8z M9,10h1v1H9z" fill="#007a00" /><path d="M7,4h1v1H7z M5,5h1v1H5z M10,8h1v1H10z M8,9h1v1H8z" fill="#ffff00" /><path d="M6,5h1v1H6z M7,5h1v1H7z M9,9h1v1H9z" fill="#008500" /><path d="M9,6h1v1H9z M7,7h1v1H7z M10,10h1v1H10z M9,11h1v1H9z" fill="#ffaa00" /><path d="M8,7h1v1H8z" fill="#dafff5" /><path d="M9,7h1v1H9z M8,8h1v1H8z" fill="#00f5e5" /><path d="M14,7h1v1H14z" fill="#8a9a9a" /><path d="M0,8h1v1H0z M0,9h1v1H0z M1,10h1v1H1z M14,10h1v1H14z M15,10h1v1H15z M2,11h1v1H2z M12,11h1v1H12z M13,11h1v1H13z M3,12h1v1H3z M10,12h1v1H10z M11,12h1v1H11z M4,13h1v1H4z M8,13h1v1H8z M9,13h1v1H9z M5,14h1v1H5z M6,14h1v1H6z M7,14h1v1H7z" fill="#003045" /><path d="M2,8h1v1H2z M13,8h1v1H13z M3,9h1v1H3z M12,9h1v1H12z M4,10h1v1H4z M5,11h1v1H5z M7,11h1v1H7z M6,12h1v1H6z" fill="#c0cccc" /><path d="M9,8h1v1H9z" fill="#00bab5" /><path d="M12,8h1v1H12z M14,8h1v1H14z M11,9h1v1H11z M6,11h1v1H6z M8,11h1v1H8z M7,12h1v1H7z" fill="#aab5b5" /><path d="M2,9h1v1H2z M13,9h1v1H13z M3,10h1v1H3z M11,10h1v1H11z M4,11h1v1H4z M5,12h1v1H5z" fill="#e0eeee" /></svg>