<svg version="1.2" viewBox="0 0 16 16" xmlns="http://www.w3.org/2000/svg"><path d="M6,3h1v1H6z M7,3h1v1H7z M8,3h1v1H8z M9,3h1v1H9z M10,3h1v1H10z M6,4h1v1H6z M10,4h1v1H10z M7,5h1v1H7z M7,6h1v1H7z M6,7h1v1H6z M5,8h1v1H5z M4,9h1v1H4z M4,10h1v1H4z M4,11h1v1H4z" fill="#11727a" /><path d="M9,5h1v1H9z M9,6h1v1H9z M10,7h1v1H10z M11,8h1v1H11z M12,9h1v1H12z M12,10h1v1H12z M12,11h1v1H12z M4,12h1v1H4z M12,12h1v1H12z M5,13h1v1H5z M11,13h1v1H11z M6,14h1v1H6z M7,14h1v1H7z M8,14h1v1H8z M9,14h1v1H9z M10,14h1v1H10z" fill="#0e5e5a" /><path d="M6,8h1v1H6z M8,9h1v1H8z M9,9h1v1H9z M10,9h1v1H10z M9,10h1v1H9z M11,10h1v1H11z M9,11h1v1H9z" fill="#4aedda" /><path d="M7,8h1v1H7z M7,9h1v1H7z M7,10h1v1H7z M10,10h1v1H10z M6,11h1v1H6z" fill="#a4fdf0" /><path d="M8,8h1v1H8z M5,10h1v1H5z M5,11h1v1H5z M7,11h1v1H7z M6,12h1v1H6z M7,12h1v1H7z M9,12h1v1H9z M7,13h1v1H7z M8,13h1v1H8z" fill="#1ad5c5" /><path d="M9,8h1v1H9z M10,8h1v1H10z M5,9h1v1H5z M11,9h1v1H11z M8,11h1v1H8z M11,11h1v1H11z M5,12h1v1H5z M11,12h1v1H11z M6,13h1v1H6z M10,13h1v1H10z" fill="#0eb5aa" /><path d="M6,9h1v1H6z M6,10h1v1H6z M10,11h1v1H10z M10,12h1v1H10z M9,13h1v1H9z" fill="#ffffff" /><path d="M8,10h1v1H8z M8,12h1v1H8z" fill="#1ec5ba" /></svg>