<svg version="1.2" viewBox="0 0 16 16" xmlns="http://www.w3.org/2000/svg"><path d="M3,1h1v1H3z M4,1h1v1H4z M5,1h1v1H5z M6,1h1v1H6z M7,1h1v1H7z M8,1h1v1H8z M2,2h1v1H2z M9,2h1v1H9z M1,3h1v1H1z M4,3h1v1H4z M5,3h1v1H5z M6,3h1v1H6z M7,3h1v1H7z M10,3h1v1H10z M1,4h1v1H1z M3,4h1v1H3z M8,4h1v1H8z M10,4h1v1H10z M1,5h1v1H1z M3,5h1v1H3z M8,5h1v1H8z M10,5h1v1H10z M1,6h1v1H1z M3,6h1v1H3z M8,6h1v1H8z M10,6h1v1H10z M1,7h1v1H1z M3,7h1v1H3z M8,7h1v1H8z M10,7h1v1H10z M1,8h1v1H1z M4,8h1v1H4z M5,8h1v1H5z M6,8h1v1H6z M7,8h1v1H7z M10,8h1v1H10z M2,9h1v1H2z M9,9h1v1H9z M11,9h1v1H11z M12,10h1v1H12z" fill="#11727a" /><path d="M3,2h1v1H3z M2,3h1v1H2z M11,10h1v1H11z" fill="#ffffff" /><path d="M4,2h1v1H4z M3,3h1v1H3z M2,4h1v1H2z M8,8h1v1H8z M10,9h1v1H10z M12,11h1v1H12z" fill="#d5fff6" /><path d="M5,2h1v1H5z M6,2h1v1H6z M7,2h1v1H7z M8,2h1v1H8z M8,3h1v1H8z M9,3h1v1H9z M9,4h1v1H9z M2,5h1v1H2z M2,6h1v1H2z M2,7h1v1H2z M9,7h1v1H9z M2,8h1v1H2z M3,8h1v1H3z M7,9h1v1H7z M10,10h1v1H10z M11,11h1v1H11z M13,12h1v1H13z" fill="#4aedd9" /><path d="M9,5h1v1H9z M9,6h1v1H9z M3,9h1v1H3z M6,9h1v1H6z M10,11h1v1H10z M11,12h1v1H11z M12,12h1v1H12z M12,13h1v1H12z" fill="#20c5b5" /><path d="M9,8h1v1H9z M8,9h1v1H8z" fill="#a1fbe8" /><path d="M4,9h1v1H4z M5,9h1v1H5z M9,10h1v1H9z M13,13h1v1H13z" fill="#1aaaa7" /><path d="M3,10h1v1H3z M4,10h1v1H4z M5,10h1v1H5z M6,10h1v1H6z M7,10h1v1H7z M8,10h1v1H8z M9,11h1v1H9z M13,11h1v1H13z M10,12h1v1H10z M14,12h1v1H14z M11,13h1v1H11z M14,13h1v1H14z M12,14h1v1H12z M13,14h1v1H13z" fill="#145e53" /></svg>