<svg version="1.2" viewBox="0 0 16 16" xmlns="http://www.w3.org/2000/svg"><path d="M5,1h1v1H5z M6,1h1v1H6z M3,2h1v1H3z M4,2h1v1H4z M7,2h1v1H7z M2,3h1v1H2z M8,3h1v1H8z M11,3h1v1H11z M12,3h1v1H12z M2,4h1v1H2z M9,4h1v1H9z M10,4h1v1H10z M13,4h1v1H13z M1,5h1v1H1z M10,5h1v1H10z M1,6h1v1H1z M10,6h1v1H10z M1,7h1v1H1z M1,8h1v1H1z" fill="#11727a" /><path d="M5,2h1v1H5z M3,3h1v1H3z M12,4h1v1H12z M2,5h1v1H2z M9,5h1v1H9z M11,5h1v1H11z M7,6h1v1H7z M9,7h1v1H9z M6,8h1v1H6z M9,8h1v1H9z M8,9h1v1H8z M9,9h1v1H9z M5,10h1v1H5z M6,10h1v1H6z M7,10h1v1H7z M8,10h1v1H8z" fill="#a4fdf0" /><path d="M6,2h1v1H6z M4,3h1v1H4z M8,4h1v1H8z M3,5h1v1H3z M6,5h1v1H6z M2,7h1v1H2z M5,7h1v1H5z M4,9h1v1H4z" fill="#daffff" /><path d="M5,3h1v1H5z M3,4h1v1H3z M6,4h1v1H6z M4,5h1v1H4z M7,5h1v1H7z M13,5h1v1H13z M2,6h1v1H2z M5,6h1v1H5z M8,6h1v1H8z M13,6h1v1H13z M3,7h1v1H3z M6,7h1v1H6z M13,7h1v1H13z M4,8h1v1H4z M14,8h1v1H14z M2,9h1v1H2z M5,9h1v1H5z M14,9h1v1H14z M3,10h1v1H3z M14,10h1v1H14z M4,11h1v1H4z M14,11h1v1H14z M5,12h1v1H5z M13,12h1v1H13z M6,13h1v1H6z M7,13h1v1H7z M11,13h1v1H11z M12,13h1v1H12z M8,14h1v1H8z M9,14h1v1H9z M10,14h1v1H10z" fill="#0e5e5a" /><path d="M6,3h1v1H6z M4,4h1v1H4z M7,4h1v1H7z M5,5h1v1H5z M8,5h1v1H8z M12,5h1v1H12z M3,6h1v1H3z M6,6h1v1H6z M9,6h1v1H9z M11,6h1v1H11z M4,7h1v1H4z M7,7h1v1H7z M11,7h1v1H11z M2,8h1v1H2z M5,8h1v1H5z M10,8h1v1H10z M12,8h1v1H12z M3,9h1v1H3z M10,9h1v1H10z M12,9h1v1H12z M4,10h1v1H4z M9,10h1v1H9z M11,10h1v1H11z M12,10h1v1H12z M6,11h1v1H6z M7,11h1v1H7z M10,11h1v1H10z M11,11h1v1H11z M7,12h1v1H7z M8,12h1v1H8z M9,12h1v1H9z M10,12h1v1H10z" fill="#4aedda" /><path d="M7,3h1v1H7z M5,4h1v1H5z M11,4h1v1H11z M4,6h1v1H4z M3,8h1v1H3z M8,8h1v1H8z M7,9h1v1H7z" fill="#ffffff" /><path d="M12,6h1v1H12z M10,7h1v1H10z M12,7h1v1H12z M11,8h1v1H11z M13,8h1v1H13z M11,9h1v1H11z M13,9h1v1H13z M10,10h1v1H10z M5,11h1v1H5z M8,11h1v1H8z M9,11h1v1H9z M12,11h1v1H12z M6,12h1v1H6z M11,12h1v1H11z M8,13h1v1H8z M9,13h1v1H9z" fill="#1ad5c5" /><path d="M8,7h1v1H8z M7,8h1v1H7z M6,9h1v1H6z M13,10h1v1H13z M13,11h1v1H13z M12,12h1v1H12z M10,13h1v1H10z" fill="#0eb5aa" /></svg>