<svg version="1.2" viewBox="0 0 16 16" xmlns="http://www.w3.org/2000/svg"><path d="M1,1h1v1H1z M2,1h1v1H2z M3,1h1v1H3z M4,1h1v1H4z M6,1h1v1H6z M7,1h1v1H7z M8,1h1v1H8z M9,1h1v1H9z M12,1h1v1H12z M13,1h1v1H13z M14,1h1v1H14z M1,2h1v1H1z M6,2h1v1H6z M11,2h1v1H11z M1,3h1v1H1z M6,3h1v1H6z M11,3h1v1H11z" fill="#258e9a" /><path d="M2,2h1v1H2z M7,2h1v1H7z M12,2h1v1H12z" fill="#ffffff" /><path d="M3,2h1v1H3z M8,2h1v1H8z M13,2h1v1H13z M2,3h1v1H2z M7,3h1v1H7z M12,3h1v1H12z M2,4h1v1H2z M7,4h1v1H7z M11,4h1v1H11z M2,6h1v1H2z M7,6h1v1H7z M10,6h1v1H10z M8,13h1v1H8z M13,13h1v1H13z" fill="#d5fff6" /><path d="M4,2h1v1H4z M9,2h1v1H9z M14,2h1v1H14z M4,3h1v1H4z M9,3h1v1H9z M14,3h1v1H14z M1,4h1v1H1z M4,4h1v1H4z M6,4h1v1H6z M9,4h1v1H9z M10,4h1v1H10z M14,4h1v1H14z M1,5h1v1H1z M4,5h1v1H4z M6,5h1v1H6z M9,5h1v1H9z M10,5h1v1H10z M13,5h1v1H13z M1,6h1v1H1z M4,6h1v1H4z M6,6h1v1H6z M9,6h1v1H9z M12,6h1v1H12z M1,7h1v1H1z M4,7h1v1H4z M6,7h1v1H6z M12,7h1v1H12z M5,8h1v1H5z M11,8h1v1H11z M5,9h1v1H5z M6,10h1v1H6z" fill="#11727a" /><path d="M3,3h1v1H3z M8,3h1v1H8z M13,3h1v1H13z M3,4h1v1H3z M8,4h1v1H8z M12,4h1v1H12z M13,4h1v1H13z M3,5h1v1H3z M8,5h1v1H8z M12,5h1v1H12z M3,6h1v1H3z M8,6h1v1H8z M11,6h1v1H11z M3,7h1v1H3z M8,7h1v1H8z M9,7h1v1H9z M11,7h1v1H11z M2,8h1v1H2z M3,8h1v1H3z M7,8h1v1H7z M8,8h1v1H8z M10,8h1v1H10z M3,9h1v1H3z M7,9h1v1H7z M10,9h1v1H10z M11,9h1v1H11z M4,10h1v1H4z M11,10h1v1H11z M12,10h1v1H12z M4,11h1v1H4z M5,11h1v1H5z M8,11h1v1H8z M12,11h1v1H12z M13,11h1v1H13z M6,12h1v1H6z M7,12h1v1H7z M12,12h1v1H12z" fill="#4aedd9" /><path d="M2,5h1v1H2z M7,5h1v1H7z M11,5h1v1H11z M2,7h1v1H2z M7,7h1v1H7z M10,7h1v1H10z M3,10h1v1H3z M5,12h1v1H5z M8,12h1v1H8z M13,12h1v1H13z M6,13h1v1H6z M7,13h1v1H7z M12,13h1v1H12z" fill="#6afffa" /><path d="M1,8h1v1H1z M6,8h1v1H6z M2,9h1v1H2z M6,9h1v1H6z M12,9h1v1H12z M2,10h1v1H2z M9,10h1v1H9z M13,10h1v1H13z M3,11h1v1H3z M9,11h1v1H9z M10,11h1v1H10z M14,11h1v1H14z M4,12h1v1H4z M9,12h1v1H9z M11,12h1v1H11z M14,12h1v1H14z M5,13h1v1H5z M9,13h1v1H9z M11,13h1v1H11z M14,13h1v1H14z M5,14h1v1H5z M6,14h1v1H6z M7,14h1v1H7z M8,14h1v1H8z M9,14h1v1H9z M11,14h1v1H11z M12,14h1v1H12z M13,14h1v1H13z M14,14h1v1H14z" fill="#145e53" /><path d="M4,8h1v1H4z M9,8h1v1H9z M4,9h1v1H4z M8,9h1v1H8z M9,9h1v1H9z M5,10h1v1H5z M7,10h1v1H7z M8,10h1v1H8z M10,10h1v1H10z M6,11h1v1H6z M7,11h1v1H7z M11,11h1v1H11z" fill="#2acaba" /></svg>