<svg version="1.2" viewBox="0 0 16 16" xmlns="http://www.w3.org/2000/svg"><path d="M1,6h1v1H1z M2,6h1v1H2z M3,6h1v1H3z M4,6h1v1H4z M6,6h1v1H6z M7,6h1v1H7z M8,6h1v1H8z M9,6h1v1H9z M11,6h1v1H11z M12,6h1v1H12z M13,6h1v1H13z M14,6h1v1H14z M1,7h1v1H1z M6,7h1v1H6z M11,7h1v1H11z M1,8h1v1H1z M6,8h1v1H6z M11,8h1v1H11z" fill="#11727a" /><path d="M2,7h1v1H2z M7,7h1v1H7z M12,7h1v1H12z" fill="#ffffff" /><path d="M3,7h1v1H3z M8,7h1v1H8z M13,7h1v1H13z M2,8h1v1H2z M7,8h1v1H7z M12,8h1v1H12z" fill="#4aedda" /><path d="M4,7h1v1H4z M9,7h1v1H9z M14,7h1v1H14z M4,8h1v1H4z M9,8h1v1H9z M14,8h1v1H14z M1,9h1v1H1z M2,9h1v1H2z M3,9h1v1H3z M4,9h1v1H4z M6,9h1v1H6z M7,9h1v1H7z M8,9h1v1H8z M9,9h1v1H9z M11,9h1v1H11z M12,9h1v1H12z M13,9h1v1H13z M14,9h1v1H14z" fill="#0e5e5a" /><path d="M3,8h1v1H3z M8,8h1v1H8z M13,8h1v1H13z" fill="#1aaaa7" /></svg>