<svg version="1.2" viewBox="0 0 16 16" xmlns="http://www.w3.org/2000/svg"><path d="M4,2h1v1H4z M11,2h1v1H11z M3,3h1v1H3z M5,3h1v1H5z M10,3h1v1H10z M12,3h1v1H12z M2,4h1v1H2z M6,4h1v1H6z M9,4h1v1H9z M13,4h1v1H13z M3,5h1v1H3z M7,5h1v1H7z M8,5h1v1H8z M4,6h1v1H4z M5,7h1v1H5z M5,8h1v1H5z M4,9h1v1H4z M3,10h1v1H3z M2,11h1v1H2z" fill="#11727a" /><path d="M4,3h1v1H4z M10,4h1v1H10z M4,10h1v1H4z" fill="#ffffff" /><path d="M11,3h1v1H11z M3,4h1v1H3z M9,5h1v1H9z M7,6h1v1H7z M6,7h1v1H6z M8,8h1v1H8z M5,9h1v1H5z M7,9h1v1H7z M3,11h1v1H3z" fill="#d5fff6" /><path d="M4,4h1v1H4z M11,4h1v1H11z M5,5h1v1H5z M6,5h1v1H6z M10,5h1v1H10z M6,6h1v1H6z M9,6h1v1H9z M8,7h1v1H8z M6,8h1v1H6z M7,8h1v1H7z M6,9h1v1H6z M9,9h1v1H9z M10,9h1v1H10z M5,10h1v1H5z M9,10h1v1H9z M10,10h1v1H10z M4,11h1v1H4z" fill="#4aedda" /><path d="M5,4h1v1H5z M12,4h1v1H12z M8,6h1v1H8z M7,7h1v1H7z M9,7h1v1H9z M9,8h1v1H9z M8,9h1v1H8z M4,12h1v1H4z" fill="#8afff5" /><path d="M4,5h1v1H4z M11,5h1v1H11z M5,6h1v1H5z M10,6h1v1H10z M6,10h1v1H6z M11,10h1v1H11z M5,11h1v1H5z M10,11h1v1H10z M11,11h1v1H11z" fill="#1acac5" /><path d="M12,5h1v1H12z M11,6h1v1H11z M10,7h1v1H10z M10,8h1v1H10z M11,9h1v1H11z M7,10h1v1H7z M8,10h1v1H8z M12,10h1v1H12z M6,11h1v1H6z M9,11h1v1H9z M13,11h1v1H13z M3,12h1v1H3z M5,12h1v1H5z M10,12h1v1H10z M12,12h1v1H12z M4,13h1v1H4z M11,13h1v1H11z" fill="#0e5e5a" /><path d="M12,11h1v1H12z M11,12h1v1H11z" fill="#1aaaa7" /></svg>