<svg version="1.2" viewBox="0 0 16 16" xmlns="http://www.w3.org/2000/svg"><path d="M6,2h1v1H6z M7,2h1v1H7z M8,2h1v1H8z M9,2h1v1H9z M10,2h1v1H10z M5,3h1v1H5z M11,3h1v1H11z M6,4h1v1H6z" fill="#0e5e5a" /><path d="M6,3h1v1H6z M10,4h1v1H10z M12,5h1v1H12z M13,6h1v1H13z M13,9h1v1H13z" fill="#3aeada" /><path d="M7,3h1v1H7z M10,3h1v1H10z M11,4h1v1H11z M13,10h1v1H13z" fill="#aafffa" /><path d="M8,3h1v1H8z M9,3h1v1H9z" fill="#eaffff" /><path d="M12,3h1v1H12z M10,5h1v1H10z M9,6h1v1H9z M8,7h1v1H8z M7,8h1v1H7z M6,9h1v1H6z M5,10h1v1H5z M4,11h1v1H4z M3,12h1v1H3z M2,13h1v1H2z" fill="#493615" /><path d="M7,4h1v1H7z M8,4h1v1H8z M9,4h1v1H9z M13,5h1v1H13z M14,6h1v1H14z M12,7h1v1H12z M14,7h1v1H14z M12,8h1v1H12z M14,8h1v1H14z M12,9h1v1H12z M14,9h1v1H14z M12,10h1v1H12z M14,10h1v1H14z M13,11h1v1H13z" fill="#0e3e3a" /><path d="M12,4h1v1H12z M10,6h1v1H10z M8,8h1v1H8z M6,10h1v1H6z M4,12h1v1H4z" fill="#755a28" /><path d="M13,4h1v1H13z M11,6h1v1H11z M10,7h1v1H10z M9,8h1v1H9z M8,9h1v1H8z M7,10h1v1H7z M6,11h1v1H6z M5,12h1v1H5z M4,13h1v1H4z M2,14h1v1H2z M3,14h1v1H3z" fill="#312118" /><path d="M11,5h1v1H11z M12,6h1v1H12z M13,7h1v1H13z M13,8h1v1H13z" fill="#1acaba" /><path d="M9,7h1v1H9z M7,9h1v1H7z M5,11h1v1H5z M3,13h1v1H3z" fill="#684e1e" /></svg>