<svg version="1.2" viewBox="0 0 16 16" xmlns="http://www.w3.org/2000/svg"><path d="M6,2h1v1H6z M7,2h1v1H7z M8,2h1v1H8z M9,2h1v1H9z M10,2h1v1H10z M11,2h1v1H11z M12,2h1v1H12z M13,2h1v1H13z M14,2h1v1H14z M5,3h1v1H5z M4,4h1v1H4z M4,5h1v1H4z M5,5h1v1H5z M6,5h1v1H6z M7,5h1v1H7z M7,6h1v1H7z M6,7h1v1H6z M6,8h1v1H6z M5,9h1v1H5z M3,10h1v1H3z M4,10h1v1H4z M5,10h1v1H5z M9,10h1v1H9z M10,10h1v1H10z M11,10h1v1H11z M2,11h1v1H2z M1,12h1v1H1z" fill="#11727a" /><path d="M6,3h1v1H6z M7,7h1v1H7z M3,11h1v1H3z" fill="#ffffff" /><path d="M7,3h1v1H7z M9,3h1v1H9z M5,4h1v1H5z M8,6h1v1H8z M7,8h1v1H7z M6,9h1v1H6z M4,11h1v1H4z M6,11h1v1H6z M2,12h1v1H2z" fill="#d5fff6" /><path d="M8,3h1v1H8z M10,3h1v1H10z M11,3h1v1H11z M8,5h1v1H8z M6,10h1v1H6z M5,11h1v1H5z M7,11h1v1H7z M8,11h1v1H8z" fill="#8afff5" /><path d="M12,3h1v1H12z M6,4h1v1H6z M9,4h1v1H9z M9,6h1v1H9z M8,7h1v1H8z M8,8h1v1H8z M7,9h1v1H7z M9,11h1v1H9z M3,12h1v1H3z M6,12h1v1H6z" fill="#4aedda" /><path d="M13,3h1v1H13z M7,4h1v1H7z M8,4h1v1H8z M10,4h1v1H10z M11,4h1v1H11z M9,5h1v1H9z M7,10h1v1H7z M10,11h1v1H10z M4,12h1v1H4z M5,12h1v1H5z M7,12h1v1H7z M8,12h1v1H8z" fill="#1acac5" /><path d="M14,3h1v1H14z M13,4h1v1H13z M10,5h1v1H10z M11,5h1v1H11z M12,5h1v1H12z M10,6h1v1H10z M9,7h1v1H9z M9,8h1v1H9z M8,9h1v1H8z M8,10h1v1H8z M11,11h1v1H11z M10,12h1v1H10z M1,13h1v1H1z M2,13h1v1H2z M3,13h1v1H3z M4,13h1v1H4z M5,13h1v1H5z M6,13h1v1H6z M7,13h1v1H7z M8,13h1v1H8z M9,13h1v1H9z" fill="#0e5e5a" /><path d="M12,4h1v1H12z M9,12h1v1H9z" fill="#1aaaa7" /></svg>