<svg version="1.2" viewBox="0 0 16 16" xmlns="http://www.w3.org/2000/svg"><path d="M6,2h1v1H6z M4,3h1v1H4z M3,4h1v1H3z M2,6h1v1H2z M9,9h1v1H9z" fill="#258e9a" /><path d="M7,2h1v1H7z M8,2h1v1H8z M5,3h1v1H5z M8,3h1v1H8z M7,4h1v1H7z M3,5h1v1H3z M6,5h1v1H6z M2,7h1v1H2z M12,7h1v1H12z M13,7h1v1H13z M2,8h1v1H2z M11,8h1v1H11z M2,9h1v1H2z M8,9h1v1H8z M10,9h1v1H10z M3,10h1v1H3z" fill="#11727a" /><path d="M6,3h1v1H6z M5,4h1v1H5z M4,5h1v1H4z M3,6h1v1H3z M3,8h1v1H3z M8,10h1v1H8z M10,10h1v1H10z" fill="#d5fff6" /><path d="M7,3h1v1H7z M3,7h1v1H3z M6,8h1v1H6z M3,9h1v1H3z M7,9h1v1H7z M11,9h1v1H11z M4,10h1v1H4z" fill="#6afffa" /><path d="M4,4h1v1H4z M9,10h1v1H9z" fill="#ffffff" /><path d="M6,4h1v1H6z M5,5h1v1H5z M4,6h1v1H4z M5,6h1v1H5z M5,7h1v1H5z M12,8h1v1H12z M4,9h1v1H4z M6,9h1v1H6z M5,10h1v1H5z M7,10h1v1H7z M11,10h1v1H11z M4,11h1v1H4z M8,11h1v1H8z M9,11h1v1H9z M10,11h1v1H10z M6,12h1v1H6z M9,12h1v1H9z" fill="#4aedd9" /><path d="M6,6h1v1H6z M6,7h1v1H6z M7,8h1v1H7z M13,8h1v1H13z M13,9h1v1H13z M12,10h1v1H12z M3,11h1v1H3z M12,11h1v1H12z M4,12h1v1H4z M5,12h1v1H5z M10,12h1v1H10z M11,12h1v1H11z M6,13h1v1H6z M7,13h1v1H7z M8,13h1v1H8z M9,13h1v1H9z" fill="#145e53" /><path d="M4,7h1v1H4z M4,8h1v1H4z M5,8h1v1H5z M5,9h1v1H5z M12,9h1v1H12z M6,10h1v1H6z M5,11h1v1H5z M6,11h1v1H6z M7,11h1v1H7z M11,11h1v1H11z M7,12h1v1H7z M8,12h1v1H8z" fill="#2acaba" /></svg>