<svg version="1.2" viewBox="0 0 16 16" xmlns="http://www.w3.org/2000/svg"><path d="M2,6h1v1H2z M3,6h1v1H3z M4,6h1v1H4z M5,6h1v1H5z M6,6h1v1H6z M7,6h1v1H7z M8,6h1v1H8z M9,6h1v1H9z M10,6h1v1H10z M11,6h1v1H11z M12,6h1v1H12z M13,6h1v1H13z M2,7h1v1H2z M2,8h1v1H2z" fill="#11727a" /><path d="M3,7h1v1H3z" fill="#ffffff" /><path d="M4,7h1v1H4z M5,7h1v1H5z M7,7h1v1H7z M3,8h1v1H3z" fill="#d5fff6" /><path d="M6,7h1v1H6z M8,7h1v1H8z M9,7h1v1H9z M4,8h1v1H4z" fill="#8afff5" /><path d="M10,7h1v1H10z M11,7h1v1H11z M5,8h1v1H5z M7,8h1v1H7z M10,8h1v1H10z" fill="#4aedda" /><path d="M12,7h1v1H12z M6,8h1v1H6z M8,8h1v1H8z M9,8h1v1H9z M11,8h1v1H11z" fill="#1acac5" /><path d="M13,7h1v1H13z M13,8h1v1H13z M2,9h1v1H2z M3,9h1v1H3z M4,9h1v1H4z M5,9h1v1H5z M6,9h1v1H6z M7,9h1v1H7z M8,9h1v1H8z M9,9h1v1H9z M10,9h1v1H10z M11,9h1v1H11z M12,9h1v1H12z M13,9h1v1H13z" fill="#0e5e5a" /><path d="M12,8h1v1H12z" fill="#1aaaa7" /></svg>