<svg version="1.2" viewBox="0 0 16 16" xmlns="http://www.w3.org/2000/svg"><path d="M2,3h1v1H2z M3,3h1v1H3z M4,3h1v1H4z M6,3h1v1H6z M7,3h1v1H7z M8,3h1v1H8z M9,3h1v1H9z M10,3h1v1H10z M11,3h1v1H11z M12,3h1v1H12z M13,3h1v1H13z M14,3h1v1H14z M2,4h1v1H2z M6,4h1v1H6z M6,5h1v1H6z M2,7h1v1H2z M3,7h1v1H3z M4,7h1v1H4z M6,7h1v1H6z M7,7h1v1H7z M8,7h1v1H8z M9,7h1v1H9z M10,7h1v1H10z M11,7h1v1H11z M12,7h1v1H12z M13,7h1v1H13z M14,7h1v1H14z M2,8h1v1H2z M6,8h1v1H6z M6,9h1v1H6z M2,11h1v1H2z M3,11h1v1H3z M4,11h1v1H4z M6,11h1v1H6z M7,11h1v1H7z M8,11h1v1H8z M9,11h1v1H9z M10,11h1v1H10z M11,11h1v1H11z M12,11h1v1H12z M13,11h1v1H13z M14,11h1v1H14z M2,12h1v1H2z M6,12h1v1H6z M6,13h1v1H6z" fill="#11727a" /><path d="M3,4h1v1H3z M8,4h1v1H8z M8,8h1v1H8z M8,12h1v1H8z" fill="#d5fff6" /><path d="M4,4h1v1H4z M14,4h1v1H14z M2,5h1v1H2z M3,5h1v1H3z M4,5h1v1H4z M7,5h1v1H7z M8,5h1v1H8z M9,5h1v1H9z M10,5h1v1H10z M11,5h1v1H11z M12,5h1v1H12z M13,5h1v1H13z M14,5h1v1H14z M4,8h1v1H4z M14,8h1v1H14z M2,9h1v1H2z M3,9h1v1H3z M4,9h1v1H4z M7,9h1v1H7z M8,9h1v1H8z M9,9h1v1H9z M10,9h1v1H10z M11,9h1v1H11z M12,9h1v1H12z M13,9h1v1H13z M14,9h1v1H14z M4,12h1v1H4z M14,12h1v1H14z M2,13h1v1H2z M3,13h1v1H3z M4,13h1v1H4z M7,13h1v1H7z M8,13h1v1H8z M9,13h1v1H9z M10,13h1v1H10z M11,13h1v1H11z M12,13h1v1H12z M13,13h1v1H13z M14,13h1v1H14z" fill="#0e5e5a" /><path d="M7,4h1v1H7z M7,8h1v1H7z M7,12h1v1H7z" fill="#ffffff" /><path d="M9,4h1v1H9z M11,4h1v1H11z M3,8h1v1H3z M9,8h1v1H9z M11,8h1v1H11z M9,12h1v1H9z M11,12h1v1H11z" fill="#8afff5" /><path d="M10,4h1v1H10z M12,4h1v1H12z M10,8h1v1H10z M12,8h1v1H12z M3,12h1v1H3z M10,12h1v1H10z M12,12h1v1H12z" fill="#4aedda" /><path d="M13,4h1v1H13z M13,8h1v1H13z M13,12h1v1H13z" fill="#1acac5" /></svg>