<svg version="1.2" viewBox="0 0 16 16" xmlns="http://www.w3.org/2000/svg"><path d="M12,2h1v1H12z M13,2h1v1H13z M14,2h1v1H14z M5,3h1v1H5z M6,3h1v1H6z M12,3h1v1H12z M4,4h1v1H4z M12,4h1v1H12z M3,5h1v1H3z M12,5h1v1H12z M2,6h1v1H2z M12,6h1v1H12z M1,7h1v1H1z M12,7h1v1H12z M12,8h1v1H12z M12,9h1v1H12z M12,10h1v1H12z M12,11h1v1H12z M12,12h1v1H12z M12,13h1v1H12z" fill="#11727a" /><path d="M13,3h1v1H13z M5,6h1v1H5z M4,7h1v1H4z M7,7h1v1H7z M3,8h1v1H3z M6,8h1v1H6z M5,9h1v1H5z M5,10h1v1H5z M13,10h1v1H13z M13,11h1v1H13z" fill="#1acac5" /><path d="M14,3h1v1H14z M6,4h1v1H6z M14,4h1v1H14z M6,5h1v1H6z M14,5h1v1H14z M6,6h1v1H6z M7,6h1v1H7z M8,6h1v1H8z M9,6h1v1H9z M10,6h1v1H10z M14,6h1v1H14z M10,7h1v1H10z M14,7h1v1H14z M1,8h1v1H1z M10,8h1v1H10z M14,8h1v1H14z M2,9h1v1H2z M6,9h1v1H6z M7,9h1v1H7z M8,9h1v1H8z M9,9h1v1H9z M10,9h1v1H10z M14,9h1v1H14z M3,10h1v1H3z M6,10h1v1H6z M14,10h1v1H14z M4,11h1v1H4z M6,11h1v1H6z M14,11h1v1H14z M5,12h1v1H5z M6,12h1v1H6z M14,12h1v1H14z M13,13h1v1H13z M14,13h1v1H14z" fill="#0e5e5a" /><path d="M5,4h1v1H5z M13,5h1v1H13z M5,7h1v1H5z M8,7h1v1H8z M13,7h1v1H13z M2,8h1v1H2z M4,8h1v1H4z M7,8h1v1H7z M3,9h1v1H3z" fill="#d5fff6" /><path d="M13,4h1v1H13z M5,5h1v1H5z M4,6h1v1H4z M3,7h1v1H3z M6,7h1v1H6z M9,7h1v1H9z M5,8h1v1H5z M8,8h1v1H8z M13,8h1v1H13z M4,9h1v1H4z M13,9h1v1H13z M4,10h1v1H4z M5,11h1v1H5z" fill="#4aedda" /><path d="M4,5h1v1H4z M3,6h1v1H3z M13,6h1v1H13z M2,7h1v1H2z" fill="#ffffff" /><path d="M9,8h1v1H9z M13,12h1v1H13z" fill="#1aaaa7" /></svg>