<svg version="1.2" viewBox="0 0 16 16" xmlns="http://www.w3.org/2000/svg"><path d="M0,3h1v1H0z M1,3h1v1H1z M2,3h1v1H2z M4,3h1v1H4z M0,4h1v1H0z M0,5h1v1H0z M2,5h1v1H2z M3,5h1v1H3z M5,5h1v1H5z M2,6h1v1H2z M0,7h1v1H0z M2,8h1v1H2z M15,12h1v1H15z" fill="#258e9a" /><path d="M3,3h1v1H3z M5,3h1v1H5z M6,3h1v1H6z M7,3h1v1H7z M8,3h1v1H8z M9,3h1v1H9z M10,3h1v1H10z M11,3h1v1H11z M12,3h1v1H12z M13,3h1v1H13z M14,3h1v1H14z M15,3h1v1H15z M4,5h1v1H4z M6,5h1v1H6z M7,5h1v1H7z M8,5h1v1H8z M9,5h1v1H9z M10,5h1v1H10z M11,5h1v1H11z M12,5h1v1H12z M13,5h1v1H13z M0,6h1v1H0z M2,7h1v1H2z M0,8h1v1H0z M13,8h1v1H13z M0,9h1v1H0z M2,9h1v1H2z M15,9h1v1H15z M0,10h1v1H0z M2,10h1v1H2z M3,10h1v1H3z M11,10h1v1H11z M13,10h1v1H13z M0,11h1v1H0z M15,11h1v1H15z M0,12h1v1H0z M12,12h1v1H12z M14,12h1v1H14z" fill="#11727a" /><path d="M1,4h1v1H1z M2,4h1v1H2z M1,5h1v1H1z M14,11h1v1H14z" fill="#ffffff" /><path d="M3,4h1v1H3z M4,4h1v1H4z M6,4h1v1H6z M1,6h1v1H1z M1,7h1v1H1z M14,7h1v1H14z M1,9h1v1H1z M14,9h1v1H14z M14,10h1v1H14z M10,11h1v1H10z M12,11h1v1H12z M13,11h1v1H13z" fill="#d5fff6" /><path d="M5,4h1v1H5z M7,4h1v1H7z M8,4h1v1H8z M10,4h1v1H10z M13,4h1v1H13z M14,5h1v1H14z M14,6h1v1H14z M1,8h1v1H1z M14,8h1v1H14z M1,10h1v1H1z M1,11h1v1H1z M3,11h1v1H3z M6,11h1v1H6z M8,11h1v1H8z M9,11h1v1H9z M11,11h1v1H11z" fill="#4aedd9" /><path d="M9,4h1v1H9z M11,4h1v1H11z M12,4h1v1H12z M14,4h1v1H14z M2,11h1v1H2z M4,11h1v1H4z M5,11h1v1H5z M7,11h1v1H7z" fill="#20c5b5" /><path d="M15,4h1v1H15z M15,5h1v1H15z M13,6h1v1H13z M15,6h1v1H15z M13,7h1v1H13z M15,7h1v1H15z M15,8h1v1H15z M13,9h1v1H13z M4,10h1v1H4z M5,10h1v1H5z M6,10h1v1H6z M7,10h1v1H7z M8,10h1v1H8z M9,10h1v1H9z M10,10h1v1H10z M12,10h1v1H12z M15,10h1v1H15z M1,12h1v1H1z M2,12h1v1H2z M3,12h1v1H3z M4,12h1v1H4z M5,12h1v1H5z M6,12h1v1H6z M7,12h1v1H7z M8,12h1v1H8z M9,12h1v1H9z M10,12h1v1H10z M11,12h1v1H11z M13,12h1v1H13z" fill="#145e53" /></svg>