<svg version="1.2" viewBox="0 0 16 16" xmlns="http://www.w3.org/2000/svg"><path d="M4,1h1v1H4z M5,1h1v1H5z M6,1h1v1H6z M7,2h1v1H7z" fill="#006500" /><path d="M9,1h1v1H9z M8,2h1v1H8z M5,4h1v1H5z M6,4h1v1H6z M7,4h1v1H7z M9,4h1v1H9z M10,4h1v1H10z M3,5h1v1H3z M4,5h1v1H4z M11,5h1v1H11z M12,5h1v1H12z M2,6h1v1H2z M13,6h1v1H13z M2,7h1v1H2z M13,7h1v1H13z M2,8h1v1H2z M6,14h1v1H6z M7,14h1v1H7z M8,14h1v1H8z" fill="#0e6a65" /><path d="M4,2h1v1H4z M5,3h1v1H5z" fill="#005500" /><path d="M5,2h1v1H5z M6,3h1v1H6z M7,3h1v1H7z" fill="#008a00" /><path d="M6,2h1v1H6z" fill="#00aa00" /><path d="M9,2h1v1H9z M8,3h1v1H8z M8,4h1v1H8z M7,5h1v1H7z M13,8h1v1H13z M2,9h1v1H2z M13,9h1v1H13z M2,10h1v1H2z M13,10h1v1H13z M3,11h1v1H3z M12,11h1v1H12z M3,12h1v1H3z M12,12h1v1H12z M4,13h1v1H4z M11,13h1v1H11z M5,14h1v1H5z M9,14h1v1H9z M10,14h1v1H10z" fill="#0e4a45" /><path d="M5,5h1v1H5z M5,6h1v1H5z M7,6h1v1H7z M8,6h1v1H8z M6,7h1v1H6z M7,7h1v1H7z" fill="#aafffa" /><path d="M6,5h1v1H6z M10,5h1v1H10z M3,6h1v1H3z M11,6h1v1H11z M3,7h1v1H3z M12,7h1v1H12z M3,8h1v1H3z M3,9h1v1H3z M4,9h1v1H4z M7,9h1v1H7z M8,9h1v1H8z M10,9h1v1H10z M3,10h1v1H3z M4,10h1v1H4z M5,10h1v1H5z M6,10h1v1H6z M7,10h1v1H7z M9,10h1v1H9z M10,10h1v1H10z M12,10h1v1H12z M4,11h1v1H4z M5,11h1v1H5z M7,11h1v1H7z M8,11h1v1H8z M9,11h1v1H9z M11,11h1v1H11z M5,12h1v1H5z M6,12h1v1H6z M7,12h1v1H7z M10,12h1v1H10z M6,13h1v1H6z M9,13h1v1H9z" fill="#1ab5b0" /><path d="M8,5h1v1H8z M12,6h1v1H12z M4,12h1v1H4z M11,12h1v1H11z M5,13h1v1H5z M7,13h1v1H7z M8,13h1v1H8z M10,13h1v1H10z" fill="#1a9a9a" /><path d="M9,5h1v1H9z M10,7h1v1H10z M4,8h1v1H4z M8,8h1v1H8z M9,8h1v1H9z M10,8h1v1H10z M12,8h1v1H12z M5,9h1v1H5z M6,9h1v1H6z M9,9h1v1H9z M11,9h1v1H11z M12,9h1v1H12z M8,10h1v1H8z M6,11h1v1H6z M10,11h1v1H10z M8,12h1v1H8z M9,12h1v1H9z" fill="#20d0c5" /><path d="M4,6h1v1H4z M9,6h1v1H9z M10,6h1v1H10z M4,7h1v1H4z M5,7h1v1H5z M8,7h1v1H8z M9,7h1v1H9z M11,7h1v1H11z M5,8h1v1H5z M6,8h1v1H6z M7,8h1v1H7z M11,8h1v1H11z M11,10h1v1H11z" fill="#3aeada" /><path d="M6,6h1v1H6z" fill="#ffffff" /></svg>