<svg version="1.2" viewBox="0 0 16 16" xmlns="http://www.w3.org/2000/svg"><path d="M7,1h1v1H7z M8,1h1v1H8z M6,2h1v1H6z M9,2h1v1H9z M6,3h1v1H6z M9,3h1v1H9z M5,4h1v1H5z M10,4h1v1H10z M5,5h1v1H5z M7,5h1v1H7z M8,5h1v1H8z M10,5h1v1H10z M4,6h1v1H4z M7,6h1v1H7z M11,6h1v1H11z M4,7h1v1H4z M7,7h1v1H7z M3,8h1v1H3z M3,9h1v1H3z M2,10h1v1H2z M7,10h1v1H7z M2,11h1v1H2z M1,12h1v1H1z" fill="#11727a" /><path d="M7,2h1v1H7z M8,4h1v1H8z M6,6h1v1H6z M10,6h1v1H10z M5,7h1v1H5z M9,7h1v1H9z M10,7h1v1H10z M4,8h1v1H4z M9,8h1v1H9z M7,9h1v1H7z M8,9h1v1H8z M3,10h1v1H3z M6,10h1v1H6z M11,10h1v1H11z M12,10h1v1H12z M5,11h1v1H5z M6,11h1v1H6z M10,11h1v1H10z M11,11h1v1H11z M2,12h1v1H2z M4,12h1v1H4z M5,12h1v1H5z M9,12h1v1H9z M10,12h1v1H10z" fill="#4aedda" /><path d="M8,2h1v1H8z M7,3h1v1H7z M6,4h1v1H6z M9,5h1v1H9z M6,8h1v1H6z M11,8h1v1H11z M5,9h1v1H5z M10,9h1v1H10z M4,10h1v1H4z M9,10h1v1H9z M3,11h1v1H3z" fill="#ffffff" /><path d="M8,3h1v1H8z M7,4h1v1H7z M6,5h1v1H6z M5,6h1v1H5z M9,6h1v1H9z M6,9h1v1H6z M11,9h1v1H11z M5,10h1v1H5z M10,10h1v1H10z M4,11h1v1H4z M9,11h1v1H9z M3,12h1v1H3z M8,12h1v1H8z" fill="#d5fff6" /><path d="M9,4h1v1H9z M6,7h1v1H6z M5,8h1v1H5z M10,8h1v1H10z M4,9h1v1H4z M9,9h1v1H9z M12,11h1v1H12z M6,12h1v1H6z M7,12h1v1H7z M11,12h1v1H11z M12,12h1v1H12z M13,12h1v1H13z" fill="#1acac5" /><path d="M8,6h1v1H8z M8,7h1v1H8z M11,7h1v1H11z M7,8h1v1H7z M8,8h1v1H8z M12,8h1v1H12z M12,9h1v1H12z M8,10h1v1H8z M13,10h1v1H13z M7,11h1v1H7z M8,11h1v1H8z M13,11h1v1H13z M14,12h1v1H14z M1,13h1v1H1z M2,13h1v1H2z M3,13h1v1H3z M4,13h1v1H4z M5,13h1v1H5z M6,13h1v1H6z M7,13h1v1H7z M8,13h1v1H8z M9,13h1v1H9z M10,13h1v1H10z M11,13h1v1H11z M12,13h1v1H12z M13,13h1v1H13z M14,13h1v1H14z" fill="#0e5e5a" /></svg>