<svg version="1.2" viewBox="0 0 16 16" xmlns="http://www.w3.org/2000/svg"><path d="M4,0h1v1H4z M11,0h1v1H11z M5,1h1v1H5z M10,1h1v1H10z M2,2h1v1H2z M13,2h1v1H13z M3,3h1v1H3z M12,3h1v1H12z M4,5h1v1H4z M5,5h1v1H5z M10,5h1v1H10z M11,5h1v1H11z M5,8h1v1H5z M10,8h1v1H10z M11,9h1v1H11z M10,10h1v1H10z M11,10h1v1H11z M10,11h1v1H10z M11,11h1v1H11z M10,12h1v1H10z M10,13h1v1H10z" fill="#0eb5aa" /><path d="M2,1h1v1H2z M4,1h1v1H4z M11,1h1v1H11z M13,1h1v1H13z M3,2h1v1H3z M12,2h1v1H12z M2,4h1v1H2z M3,4h1v1H3z M12,4h1v1H12z M13,4h1v1H13z M2,6h1v1H2z M5,6h1v1H5z M7,6h1v1H7z M8,6h1v1H8z M10,6h1v1H10z M13,6h1v1H13z M2,7h1v1H2z M5,7h1v1H5z M10,7h1v1H10z M13,7h1v1H13z M2,8h1v1H2z M4,8h1v1H4z M6,8h1v1H6z M9,8h1v1H9z M11,8h1v1H11z M2,9h1v1H2z M5,9h1v1H5z M10,9h1v1H10z M2,10h1v1H2z M2,11h1v1H2z M3,12h1v1H3z" fill="#11727a" /><path d="M4,2h1v1H4z M5,2h1v1H5z M8,2h1v1H8z M9,2h1v1H9z M10,2h1v1H10z M3,7h1v1H3z M4,7h1v1H4z M3,8h1v1H3z M3,9h1v1H3z M4,9h1v1H4z M6,9h1v1H6z M4,10h1v1H4z M6,10h1v1H6z M4,11h1v1H4z M6,11h1v1H6z M4,12h1v1H4z M6,12h1v1H6z M5,13h1v1H5z M6,13h1v1H6z M6,14h1v1H6z" fill="#a4fdf0" /><path d="M6,2h1v1H6z M7,2h1v1H7z M5,10h1v1H5z M5,11h1v1H5z" fill="#ffffff" /><path d="M11,2h1v1H11z M5,3h1v1H5z M6,3h1v1H6z M9,3h1v1H9z M10,3h1v1H10z M6,4h1v1H6z M7,4h1v1H7z M8,4h1v1H8z M9,4h1v1H9z M6,7h1v1H6z M7,7h1v1H7z M8,7h1v1H8z M9,7h1v1H9z M7,8h1v1H7z M8,8h1v1H8z M7,9h1v1H7z M8,9h1v1H8z M3,10h1v1H3z M7,10h1v1H7z M8,10h1v1H8z M3,11h1v1H3z M7,11h1v1H7z M8,11h1v1H8z M7,12h1v1H7z M8,12h1v1H8z M4,13h1v1H4z M7,13h1v1H7z M8,13h1v1H8z M5,14h1v1H5z M7,14h1v1H7z M8,14h1v1H8z" fill="#4aedda" /><path d="M4,3h1v1H4z M7,3h1v1H7z M8,3h1v1H8z M11,3h1v1H11z M12,5h1v1H12z M4,6h1v1H4z M9,6h1v1H9z M11,6h1v1H11z M12,6h1v1H12z" fill="#005565" /><path d="M4,4h1v1H4z M5,4h1v1H5z M10,4h1v1H10z M11,4h1v1H11z M6,5h1v1H6z M7,5h1v1H7z M8,5h1v1H8z M9,5h1v1H9z M11,7h1v1H11z M12,7h1v1H12z M12,8h1v1H12z M9,9h1v1H9z M12,9h1v1H12z M9,10h1v1H9z M12,10h1v1H12z M9,11h1v1H9z M12,11h1v1H12z M9,12h1v1H9z M11,12h1v1H11z M9,13h1v1H9z M11,13h1v1H11z M9,14h1v1H9z M10,14h1v1H10z" fill="#1ad5c5" /><path d="M2,5h1v1H2z M3,5h1v1H3z M13,5h1v1H13z M3,6h1v1H3z M6,6h1v1H6z" fill="#005a6a" /><path d="M13,8h1v1H13z M13,9h1v1H13z M13,10h1v1H13z M13,11h1v1H13z M12,12h1v1H12z M3,13h1v1H3z M12,13h1v1H12z M4,14h1v1H4z M11,14h1v1H11z M5,15h1v1H5z M6,15h1v1H6z M7,15h1v1H7z M8,15h1v1H8z M9,15h1v1H9z M10,15h1v1H10z" fill="#0e5e5a" /><path d="M5,12h1v1H5z" fill="#caffff" /></svg>