<svg version="1.2" viewBox="0 0 16 16" xmlns="http://www.w3.org/2000/svg"><path d="M9,2h1v1H9z M10,2h1v1H10z M8,3h1v1H8z M11,3h1v1H11z M6,4h1v1H6z M7,4h1v1H7z M12,4h1v1H12z M5,5h1v1H5z M8,5h1v1H8z M3,6h1v1H3z M4,6h1v1H4z M9,6h1v1H9z M2,7h1v1H2z M5,7h1v1H5z M11,7h1v1H11z M1,8h1v1H1z M6,8h1v1H6z M8,9h1v1H8z" fill="#11727a" /><path d="M9,3h1v1H9z M6,5h1v1H6z M5,6h1v1H5z M3,7h1v1H3z" fill="#ffffff" /><path d="M10,3h1v1H10z M8,4h1v1H8z M7,5h1v1H7z M11,5h1v1H11z M8,6h1v1H8z M11,6h1v1H11z M12,6h1v1H12z M4,7h1v1H4z M8,7h1v1H8z M9,7h1v1H9z M12,7h1v1H12z M2,8h1v1H2z M5,8h1v1H5z M9,8h1v1H9z M5,9h1v1H5z M6,9h1v1H6z M6,10h1v1H6z" fill="#a4fdf0" /><path d="M9,4h1v1H9z M10,4h1v1H10z M11,4h1v1H11z M10,5h1v1H10z M6,6h1v1H6z M7,6h1v1H7z M7,7h1v1H7z M3,8h1v1H3z M4,8h1v1H4z M8,8h1v1H8z M10,8h1v1H10z M12,8h1v1H12z M4,9h1v1H4z M9,9h1v1H9z M10,9h1v1H10z M5,10h1v1H5z M7,10h1v1H7z M9,10h1v1H9z M6,11h1v1H6z M7,11h1v1H7z M8,11h1v1H8z" fill="#4aedda" /><path d="M9,5h1v1H9z M10,6h1v1H10z M6,7h1v1H6z M10,7h1v1H10z M7,8h1v1H7z M11,8h1v1H11z M7,9h1v1H7z M8,10h1v1H8z" fill="#35959a" /><path d="M12,5h1v1H12z M13,7h1v1H13z M13,8h1v1H13z M3,9h1v1H3z M11,9h1v1H11z M12,9h1v1H12z M4,10h1v1H4z M10,10h1v1H10z M5,11h1v1H5z M6,12h1v1H6z" fill="#1ad5c5" /><path d="M13,5h1v1H13z M14,6h1v1H14z M15,7h1v1H15z M14,8h1v1H14z M2,9h1v1H2z M13,9h1v1H13z M3,10h1v1H3z M11,10h1v1H11z M12,10h1v1H12z M4,11h1v1H4z M10,11h1v1H10z M5,12h1v1H5z M8,12h1v1H8z M9,12h1v1H9z M6,13h1v1H6z M7,13h1v1H7z" fill="#0e5e5a" /><path d="M13,6h1v1H13z M14,7h1v1H14z M9,11h1v1H9z M7,12h1v1H7z" fill="#0eb5aa" /></svg>