<svg version="1.2" viewBox="0 0 16 16" xmlns="http://www.w3.org/2000/svg"><path d="M5,1h1v1H5z M6,1h1v1H6z M7,1h1v1H7z M8,1h1v1H8z M9,1h1v1H9z M10,1h1v1H10z M11,1h1v1H11z M12,1h1v1H12z M13,1h1v1H13z M14,1h1v1H14z M5,2h1v1H5z M14,2h1v1H14z M5,3h1v1H5z M5,4h1v1H5z M1,5h1v1H1z M2,5h1v1H2z M3,5h1v1H3z M4,5h1v1H4z M12,5h1v1H12z M1,6h1v1H1z M12,6h1v1H12z M1,7h1v1H1z M12,7h1v1H12z M1,8h1v1H1z M5,8h1v1H5z M7,8h1v1H7z M8,8h1v1H8z M9,8h1v1H9z M10,8h1v1H10z M11,8h1v1H11z M12,8h1v1H12z M1,9h1v1H1z M5,9h1v1H5z M1,10h1v1H1z M1,11h1v1H1z M3,11h1v1H3z M8,11h1v1H8z M1,12h1v1H1z M3,12h1v1H3z M4,12h1v1H4z M5,12h1v1H5z M6,12h1v1H6z M7,12h1v1H7z M8,12h1v1H8z" fill="#11727a" /><path d="M6,2h1v1H6z M2,6h1v1H2z" fill="#ffffff" /><path d="M7,2h1v1H7z M8,2h1v1H8z M10,2h1v1H10z M6,3h1v1H6z M3,6h1v1H3z M2,7h1v1H2z M2,8h1v1H2z M8,9h1v1H8z M13,9h1v1H13z M2,10h1v1H2z M9,13h1v1H9z" fill="#d5fff6" /><path d="M9,2h1v1H9z M11,2h1v1H11z M12,2h1v1H12z M6,4h1v1H6z M4,6h1v1H4z M9,6h1v1H9z M13,6h1v1H13z M13,8h1v1H13z M2,9h1v1H2z M7,9h1v1H7z M9,9h1v1H9z M10,9h1v1H10z M12,9h1v1H12z M2,11h1v1H2z M9,12h1v1H9z M5,13h1v1H5z M7,13h1v1H7z M8,13h1v1H8z" fill="#8afff5" /><path d="M13,2h1v1H13z M13,3h1v1H13z M13,5h1v1H13z M5,6h1v1H5z M8,6h1v1H8z M9,7h1v1H9z M13,7h1v1H13z M6,8h1v1H6z M6,9h1v1H6z M11,9h1v1H11z M9,11h1v1H9z M2,12h1v1H2z M2,13h1v1H2z M4,13h1v1H4z M6,13h1v1H6z" fill="#4aedda" /><path d="M7,3h1v1H7z M8,3h1v1H8z M9,3h1v1H9z M10,3h1v1H10z M11,3h1v1H11z M12,3h1v1H12z M14,3h1v1H14z M7,4h1v1H7z M12,4h1v1H12z M14,4h1v1H14z M5,5h1v1H5z M6,5h1v1H6z M7,5h1v1H7z M8,5h1v1H8z M9,5h1v1H9z M10,5h1v1H10z M14,5h1v1H14z M10,6h1v1H10z M14,6h1v1H14z M3,7h1v1H3z M4,7h1v1H4z M5,7h1v1H5z M6,7h1v1H6z M7,7h1v1H7z M8,7h1v1H8z M10,7h1v1H10z M14,7h1v1H14z M3,8h1v1H3z M14,8h1v1H14z M3,9h1v1H3z M14,9h1v1H14z M3,10h1v1H3z M5,10h1v1H5z M6,10h1v1H6z M7,10h1v1H7z M8,10h1v1H8z M9,10h1v1H9z M10,10h1v1H10z M11,10h1v1H11z M12,10h1v1H12z M13,10h1v1H13z M14,10h1v1H14z M10,11h1v1H10z M10,12h1v1H10z M1,13h1v1H1z M10,13h1v1H10z M1,14h1v1H1z M2,14h1v1H2z M3,14h1v1H3z M4,14h1v1H4z M5,14h1v1H5z M6,14h1v1H6z M7,14h1v1H7z M8,14h1v1H8z M9,14h1v1H9z M10,14h1v1H10z" fill="#0e5e5a" /><path d="M13,4h1v1H13z M6,6h1v1H6z M7,6h1v1H7z M3,13h1v1H3z" fill="#1acac5" /></svg>