<svg version="1.2" viewBox="0 0 16 16" xmlns="http://www.w3.org/2000/svg"><path d="M9,2h1v1H9z M10,2h1v1H10z M8,3h1v1H8z M3,4h1v1H3z M4,4h1v1H4z M8,4h1v1H8z M11,4h1v1H11z M12,4h1v1H12z M2,5h1v1H2z M7,5h1v1H7z M13,5h1v1H13z M1,6h1v1H1z M7,6h1v1H7z M14,6h1v1H14z M0,7h1v1H0z M7,7h1v1H7z M15,7h1v1H15z M2,8h1v1H2z M6,8h1v1H6z M13,8h1v1H13z M3,9h1v1H3z M6,9h1v1H6z M12,9h1v1H12z M4,10h1v1H4z M6,10h1v1H6z M11,10h1v1H11z M5,11h1v1H5z M5,12h1v1H5z" fill="#11727a" /><path d="M9,3h1v1H9z M1,8h1v1H1z M7,8h1v1H7z M14,8h1v1H14z M7,9h1v1H7z M12,10h1v1H12z M6,11h1v1H6z" fill="#4aedda" /><path d="M10,3h1v1H10z M10,4h1v1H10z M4,5h1v1H4z M9,5h1v1H9z M11,5h1v1H11z M3,6h1v1H3z M9,6h1v1H9z M12,6h1v1H12z M2,7h1v1H2z M9,7h1v1H9z M13,7h1v1H13z M0,8h1v1H0z M8,8h1v1H8z M15,8h1v1H15z M1,9h1v1H1z M8,9h1v1H8z M14,9h1v1H14z M2,10h1v1H2z M8,10h1v1H8z M13,10h1v1H13z M3,11h1v1H3z M4,11h1v1H4z M7,11h1v1H7z M11,11h1v1H11z M12,11h1v1H12z M7,12h1v1H7z M5,13h1v1H5z M6,13h1v1H6z" fill="#0e5e5a" /><path d="M9,4h1v1H9z M3,5h1v1H3z M12,5h1v1H12z M1,7h1v1H1z M8,7h1v1H8z M14,7h1v1H14z M2,9h1v1H2z M13,9h1v1H13z" fill="#8afff5" /><path d="M8,5h1v1H8z" fill="#ffffff" /><path d="M2,6h1v1H2z M8,6h1v1H8z M13,6h1v1H13z" fill="#d5fff6" /><path d="M3,10h1v1H3z M7,10h1v1H7z" fill="#1acac5" /><path d="M6,12h1v1H6z" fill="#1aaaa7" /></svg>