<svg version="1.2" viewBox="0 0 16 16" xmlns="http://www.w3.org/2000/svg"><path d="M13,1h1v1H13z M14,1h1v1H14z M15,1h1v1H15z M11,2h1v1H11z M12,2h1v1H12z M9,3h1v1H9z M10,3h1v1H10z M7,4h1v1H7z M8,4h1v1H8z M5,5h1v1H5z M6,5h1v1H6z M3,6h1v1H3z M4,6h1v1H4z M1,7h1v1H1z M2,7h1v1H2z M0,8h1v1H0z M7,8h1v1H7z M6,9h1v1H6z M5,10h1v1H5z" fill="#258e9a" /><path d="M13,2h1v1H13z M12,3h1v1H12z M9,4h1v1H9z M8,5h1v1H8z M5,6h1v1H5z M11,6h1v1H11z M4,7h1v1H4z M1,8h1v1H1z M9,8h1v1H9z M8,9h1v1H8z" fill="#d5fff6" /><path d="M14,2h1v1H14z M10,4h1v1H10z M12,5h1v1H12z M6,6h1v1H6z M2,8h1v1H2z M9,9h1v1H9z M7,11h1v1H7z" fill="#6afffa" /><path d="M15,2h1v1H15z M15,3h1v1H15z M14,4h1v1H14z M14,5h1v1H14z M10,6h1v1H10z M9,7h1v1H9z M1,9h1v1H1z M2,9h1v1H2z M3,10h1v1H3z M4,10h1v1H4z M6,11h1v1H6z" fill="#11727a" /><path d="M11,3h1v1H11z M7,5h1v1H7z M3,7h1v1H3z M10,7h1v1H10z M7,10h1v1H7z" fill="#ffffff" /><path d="M13,3h1v1H13z M14,3h1v1H14z M11,4h1v1H11z M12,4h1v1H12z M13,4h1v1H13z M9,5h1v1H9z M10,5h1v1H10z M13,5h1v1H13z M7,6h1v1H7z M8,6h1v1H8z M12,6h1v1H12z M5,7h1v1H5z M6,7h1v1H6z M7,7h1v1H7z M11,7h1v1H11z M12,7h1v1H12z M3,8h1v1H3z M4,8h1v1H4z M5,8h1v1H5z M10,8h1v1H10z M11,8h1v1H11z M3,9h1v1H3z M4,9h1v1H4z M10,9h1v1H10z M11,9h1v1H11z M8,10h1v1H8z M9,10h1v1H9z M10,10h1v1H10z M8,11h1v1H8z M9,11h1v1H9z M10,11h1v1H10z M8,12h1v1H8z M9,12h1v1H9z" fill="#4aedd9" /><path d="M11,5h1v1H11z M9,6h1v1H9z M13,6h1v1H13z M8,7h1v1H8z M6,8h1v1H6z M12,8h1v1H12z M5,9h1v1H5z M12,9h1v1H12z M11,10h1v1H11z M11,11h1v1H11z M10,12h1v1H10z M11,12h1v1H11z M9,13h1v1H9z M10,13h1v1H10z M10,14h1v1H10z" fill="#2acaba" /><path d="M14,6h1v1H14z M13,7h1v1H13z M8,8h1v1H8z M13,8h1v1H13z M7,9h1v1H7z M13,9h1v1H13z M6,10h1v1H6z M12,10h1v1H12z M12,11h1v1H12z M7,12h1v1H7z M12,12h1v1H12z M8,13h1v1H8z M11,13h1v1H11z M9,14h1v1H9z M11,14h1v1H11z M10,15h1v1H10z" fill="#145e53" /></svg>