<svg version="1.2" viewBox="0 0 16 16" xmlns="http://www.w3.org/2000/svg"><path d="M9,2h1v1H9z M10,2h1v1H10z M11,2h1v1H11z M8,3h1v1H8z M12,3h1v1H12z M5,4h1v1H5z M6,4h1v1H6z M7,4h1v1H7z M13,4h1v1H13z M4,5h1v1H4z M8,5h1v1H8z M14,5h1v1H14z M3,6h1v1H3z M6,6h1v1H6z M9,6h1v1H9z M2,7h1v1H2z M5,7h1v1H5z M7,7h1v1H7z M10,7h1v1H10z M1,8h1v1H1z M5,8h1v1H5z M7,8h1v1H7z M11,8h1v1H11z M1,9h1v1H1z M8,9h1v1H8z M10,9h1v1H10z M1,10h1v1H1z" fill="#11727a" /><path d="M9,3h1v1H9z M4,6h1v1H4z" fill="#ffffff" /><path d="M10,3h1v1H10z M8,4h1v1H8z M5,5h1v1H5z M3,7h1v1H3z M12,8h1v1H12z M6,12h1v1H6z" fill="#d5fff6" /><path d="M11,3h1v1H11z M6,5h1v1H6z M13,7h1v1H13z M2,8h1v1H2z M11,9h1v1H11z M7,11h1v1H7z M5,12h1v1H5z" fill="#8afff5" /><path d="M9,4h1v1H9z M10,4h1v1H10z M11,4h1v1H11z M12,5h1v1H12z M5,6h1v1H5z M7,6h1v1H7z M12,6h1v1H12z M14,6h1v1H14z M4,7h1v1H4z M8,7h1v1H8z M12,7h1v1H12z M14,7h1v1H14z M3,8h1v1H3z M8,8h1v1H8z M10,8h1v1H10z M13,8h1v1H13z M3,9h1v1H3z M6,9h1v1H6z M9,9h1v1H9z M12,9h1v1H12z M3,10h1v1H3z M7,10h1v1H7z M11,10h1v1H11z M2,11h1v1H2z M4,11h1v1H4z M5,11h1v1H5z M6,11h1v1H6z M8,11h1v1H8z M9,11h1v1H9z M10,11h1v1H10z M3,12h1v1H3z M7,12h1v1H7z M4,13h1v1H4z M5,13h1v1H5z M6,13h1v1H6z" fill="#0e5e5a" /><path d="M12,4h1v1H12z M13,5h1v1H13z M8,6h1v1H8z M9,7h1v1H9z M6,8h1v1H6z M7,9h1v1H7z M2,10h1v1H2z M9,10h1v1H9z M3,11h1v1H3z" fill="#1acac5" /><path d="M7,5h1v1H7z M13,6h1v1H13z M6,7h1v1H6z M9,8h1v1H9z M2,9h1v1H2z M8,10h1v1H8z M10,10h1v1H10z M4,12h1v1H4z" fill="#4aedda" /></svg>