<svg version="1.2" viewBox="0 0 16 16" xmlns="http://www.w3.org/2000/svg"><path d="M0,0h1v1H0z M1,0h1v1H1z M2,0h1v1H2z M3,0h1v1H3z M5,0h1v1H5z M0,1h1v1H0z M0,2h1v1H0z M2,2h1v1H2z M3,2h1v1H3z M4,2h1v1H4z M6,2h1v1H6z M0,3h1v1H0z M2,3h1v1H2z M2,4h1v1H2z M0,5h1v1H0z M2,6h1v1H2z" fill="#258e9a" /><path d="M4,0h1v1H4z M6,0h1v1H6z M7,0h1v1H7z M8,0h1v1H8z M9,0h1v1H9z M10,0h1v1H10z M11,0h1v1H11z M12,0h1v1H12z M13,0h1v1H13z M14,0h1v1H14z M15,0h1v1H15z M5,2h1v1H5z M7,2h1v1H7z M8,2h1v1H8z M9,2h1v1H9z M10,2h1v1H10z M11,2h1v1H11z M12,2h1v1H12z M13,2h1v1H13z M0,4h1v1H0z M2,5h1v1H2z M3,5h1v1H3z M4,5h1v1H4z M5,5h1v1H5z M6,5h1v1H6z M7,5h1v1H7z M8,5h1v1H8z M9,5h1v1H9z M10,5h1v1H10z M11,5h1v1H11z M12,5h1v1H12z M0,6h1v1H0z M5,6h1v1H5z M10,6h1v1H10z M0,7h1v1H0z M2,7h1v1H2z M5,7h1v1H5z M7,7h1v1H7z M10,7h1v1H10z M0,8h1v1H0z M2,8h1v1H2z M5,8h1v1H5z M0,9h1v1H0z M2,9h1v1H2z M5,9h1v1H5z M0,10h1v1H0z M2,10h1v1H2z M5,10h1v1H5z M13,10h1v1H13z M0,11h1v1H0z M2,11h1v1H2z M5,11h1v1H5z M10,11h1v1H10z M15,11h1v1H15z M0,12h1v1H0z M2,12h1v1H2z M13,12h1v1H13z M0,13h1v1H0z M2,13h1v1H2z M10,13h1v1H10z M12,13h1v1H12z M13,13h1v1H13z M15,13h1v1H15z M0,14h1v1H0z M15,14h1v1H15z M0,15h1v1H0z M11,15h1v1H11z M13,15h1v1H13z M14,15h1v1H14z M15,15h1v1H15z" fill="#11727a" /><path d="M1,1h1v1H1z M2,1h1v1H2z M1,2h1v1H1z M3,3h1v1H3z M4,3h1v1H4z M6,6h1v1H6z M14,14h1v1H14z" fill="#ffffff" /><path d="M3,1h1v1H3z M4,1h1v1H4z M6,1h1v1H6z M1,3h1v1H1z M5,3h1v1H5z M7,3h1v1H7z M12,3h1v1H12z M1,4h1v1H1z M3,4h1v1H3z M1,6h1v1H1z M7,6h1v1H7z M6,9h1v1H6z M14,10h1v1H14z M14,12h1v1H14z M14,13h1v1H14z M10,14h1v1H10z M12,14h1v1H12z M13,14h1v1H13z" fill="#d5fff6" /><path d="M5,1h1v1H5z M7,1h1v1H7z M10,1h1v1H10z M11,1h1v1H11z M12,1h1v1H12z M9,3h1v1H9z M10,3h1v1H10z M4,4h1v1H4z M5,4h1v1H5z M6,4h1v1H6z M7,4h1v1H7z M10,4h1v1H10z M11,4h1v1H11z M1,5h1v1H1z M9,6h1v1H9z M1,7h1v1H1z M7,9h1v1H7z M8,9h1v1H8z M9,9h1v1H9z M14,9h1v1H14z M1,10h1v1H1z M9,10h1v1H9z M1,11h1v1H1z M14,11h1v1H14z M1,12h1v1H1z M9,14h1v1H9z M11,14h1v1H11z" fill="#4aedd9" /><path d="M8,1h1v1H8z M9,1h1v1H9z M13,1h1v1H13z M14,1h1v1H14z M14,2h1v1H14z M8,4h1v1H8z M9,4h1v1H9z M14,5h1v1H14z M14,7h1v1H14z M1,8h1v1H1z M14,8h1v1H14z M1,9h1v1H1z M7,10h1v1H7z M8,10h1v1H8z M1,13h1v1H1z M1,14h1v1H1z M2,14h1v1H2z M5,14h1v1H5z M7,14h1v1H7z M8,14h1v1H8z" fill="#20c5b5" /><path d="M15,1h1v1H15z M15,2h1v1H15z M13,3h1v1H13z M15,3h1v1H15z M13,4h1v1H13z M15,4h1v1H15z M13,5h1v1H13z M15,5h1v1H15z M13,6h1v1H13z M15,6h1v1H15z M8,7h1v1H8z M13,7h1v1H13z M15,7h1v1H15z M6,8h1v1H6z M7,8h1v1H7z M8,8h1v1H8z M9,8h1v1H9z M10,8h1v1H10z M13,8h1v1H13z M15,8h1v1H15z M10,9h1v1H10z M13,9h1v1H13z M15,9h1v1H15z M10,10h1v1H10z M15,10h1v1H15z M6,11h1v1H6z M7,11h1v1H7z M8,11h1v1H8z M9,11h1v1H9z M13,11h1v1H13z M15,12h1v1H15z M3,13h1v1H3z M4,13h1v1H4z M5,13h1v1H5z M6,13h1v1H6z M7,13h1v1H7z M8,13h1v1H8z M9,13h1v1H9z M11,13h1v1H11z M1,15h1v1H1z M2,15h1v1H2z M3,15h1v1H3z M4,15h1v1H4z M5,15h1v1H5z M6,15h1v1H6z M7,15h1v1H7z M8,15h1v1H8z M9,15h1v1H9z M10,15h1v1H10z M12,15h1v1H12z" fill="#145e53" /><path d="M6,3h1v1H6z M8,3h1v1H8z M11,3h1v1H11z M12,4h1v1H12z M8,6h1v1H8z M6,7h1v1H6z M9,7h1v1H9z M6,10h1v1H6z" fill="#6afffa" /><path d="M14,3h1v1H14z M14,4h1v1H14z M14,6h1v1H14z M3,14h1v1H3z M4,14h1v1H4z M6,14h1v1H6z" fill="#1aaaa7" /></svg>