<svg version="1.2" viewBox="0 0 16 16" xmlns="http://www.w3.org/2000/svg"><path d="M3,2h1v1H3z M4,2h1v1H4z M5,2h1v1H5z M6,2h1v1H6z M9,2h1v1H9z M10,2h1v1H10z M11,2h1v1H11z M12,2h1v1H12z M3,3h1v1H3z M6,3h1v1H6z M9,3h1v1H9z M3,4h1v1H3z M6,4h1v1H6z M9,4h1v1H9z M3,5h1v1H3z M6,5h1v1H6z M9,5h1v1H9z M3,6h1v1H3z M6,6h1v1H6z M9,6h1v1H9z M3,7h1v1H3z M6,7h1v1H6z M7,7h1v1H7z M8,7h1v1H8z M9,7h1v1H9z M3,8h1v1H3z M3,9h1v1H3z M3,12h1v1H3z M4,12h1v1H4z M5,12h1v1H5z M6,12h1v1H6z M7,12h1v1H7z M8,12h1v1H8z M9,12h1v1H9z M10,12h1v1H10z M11,12h1v1H11z M12,12h1v1H12z M3,13h1v1H3z" fill="#11727a" /><path d="M4,3h1v1H4z M10,3h1v1H10z M7,8h1v1H7z M6,13h1v1H6z" fill="#ffffff" /><path d="M5,3h1v1H5z M11,3h1v1H11z M4,5h1v1H4z M10,5h1v1H10z M5,6h1v1H5z M11,6h1v1H11z M4,7h1v1H4z M10,7h1v1H10z M4,9h1v1H4z M4,13h1v1H4z M8,13h1v1H8z" fill="#8afff5" /><path d="M12,3h1v1H12z M12,4h1v1H12z M12,5h1v1H12z M12,6h1v1H12z M12,7h1v1H12z M12,8h1v1H12z M12,9h1v1H12z M3,10h1v1H3z M4,10h1v1H4z M5,10h1v1H5z M6,10h1v1H6z M7,10h1v1H7z M8,10h1v1H8z M9,10h1v1H9z M10,10h1v1H10z M11,10h1v1H11z M12,10h1v1H12z M12,13h1v1H12z M3,14h1v1H3z M4,14h1v1H4z M5,14h1v1H5z M6,14h1v1H6z M7,14h1v1H7z M8,14h1v1H8z M9,14h1v1H9z M10,14h1v1H10z M11,14h1v1H11z M12,14h1v1H12z" fill="#0e5e5a" /><path d="M4,4h1v1H4z M10,4h1v1H10z M4,6h1v1H4z M10,6h1v1H10z M6,8h1v1H6z M8,8h1v1H8z M5,13h1v1H5z M7,13h1v1H7z" fill="#d5fff6" /><path d="M5,4h1v1H5z M11,4h1v1H11z M5,5h1v1H5z M11,5h1v1H11z M5,7h1v1H5z M11,7h1v1H11z M4,8h1v1H4z M5,8h1v1H5z M9,8h1v1H9z M10,8h1v1H10z M5,9h1v1H5z M6,9h1v1H6z M7,9h1v1H7z M8,9h1v1H8z M9,9h1v1H9z M9,13h1v1H9z M10,13h1v1H10z" fill="#4aedda" /><path d="M11,8h1v1H11z M10,9h1v1H10z M11,9h1v1H11z M11,13h1v1H11z" fill="#1acac5" /></svg>