<?xml version="1.0" encoding="utf-8" ?>
<svg baseProfile="tiny" version="1.2" viewBox="0 0 16 16" xmlns="http://www.w3.org/2000/svg" xmlns:ev="http://www.w3.org/2001/xml-events" xmlns:xlink="http://www.w3.org/1999/xlink"><defs /><path d="M7,0h1v1H7z M2,1h1v1H2z M6,1h1v1H6z M12,1h1v1H12z M1,2h1v1H1z M11,2h1v1H11z M6,4h1v1H6z M7,4h1v1H7z M5,5h1v1H5z M1,6h1v1H1z M4,6h1v1H4z M14,6h1v1H14z M0,7h1v1H0z M4,7h1v1H4z M13,7h1v1H13z M11,9h1v1H11z M10,10h1v1H10z M2,11h1v1H2z M9,11h1v1H9z M13,11h1v1H13z M1,12h1v1H1z M12,12h1v1H12z M7,13h1v1H7z M11,13h1v1H11z M6,14h1v1H6z" fill="#258e9a" /><path d="M8,0h1v1H8z M3,1h1v1H3z M9,1h1v1H9z M13,1h1v1H13z M4,2h1v1H4z M7,2h1v1H7z M14,2h1v1H14z M1,3h1v1H1z M12,3h1v1H12z M8,4h1v1H8z M2,7h1v1H2z M15,7h1v1H15z M0,8h1v1H0z M4,8h1v1H4z M13,8h1v1H13z M1,9h1v1H1z M4,9h1v1H4z M3,12h1v1H3z M14,12h1v1H14z M1,13h1v1H1z M4,13h1v1H4z M8,13h1v1H8z M2,14h1v1H2z M12,14h1v1H12z M7,15h1v1H7z" fill="#11727a" /><path d="M7,1h1v1H7z M2,2h1v1H2z M12,2h1v1H12z M6,5h1v1H6z M5,6h1v1H5z M1,7h1v1H1z M2,12h1v1H2z" fill="#ffffff" /><path d="M8,1h1v1H8z M3,2h1v1H3z M13,2h1v1H13z M2,3h1v1H2z M8,5h1v1H8z M6,6h1v1H6z M14,7h1v1H14z M1,8h1v1H1z M5,8h1v1H5z M10,8h1v1H10z M8,10h1v1H8z M13,12h1v1H13z M2,13h1v1H2z M12,13h1v1H12z M7,14h1v1H7z" fill="#6afffa" /><path d="M8,2h1v1H8z M3,3h1v1H3z M14,3h1v1H14z M2,4h1v1H2z M9,4h1v1H9z M13,4h1v1H13z M10,5h1v1H10z M11,6h1v1H11z M11,7h1v1H11z M2,8h1v1H2z M11,8h1v1H11z M15,8h1v1H15z M14,9h1v1H14z M5,10h1v1H5z M6,11h1v1H6z M7,11h1v1H7z M8,11h1v1H8z M14,13h1v1H14z M3,14h1v1H3z M9,14h1v1H9z M13,14h1v1H13z M8,15h1v1H8z" fill="#145e53" /><path d="M13,3h1v1H13z M7,6h1v1H7z M8,6h1v1H8z M10,6h1v1H10z M6,7h1v1H6z M9,7h1v1H9z M6,8h1v1H6z M9,8h1v1H9z M14,8h1v1H14z M7,9h1v1H7z M8,9h1v1H8z M6,10h1v1H6z M3,13h1v1H3z M13,13h1v1H13z M8,14h1v1H8z" fill="#2acaba" /><path d="M7,5h1v1H7z M5,7h1v1H5z M10,9h1v1H10z M9,10h1v1H9z" fill="#d5fff6" /><path d="M9,5h1v1H9z M9,6h1v1H9z M7,7h1v1H7z M8,7h1v1H8z M10,7h1v1H10z M7,8h1v1H7z M8,8h1v1H8z M5,9h1v1H5z M6,9h1v1H6z M9,9h1v1H9z M7,10h1v1H7z" fill="#4aedd9"/></svg>