<svg version="1.2" viewBox="0 0 16 16" xmlns="http://www.w3.org/2000/svg"><path d="M13,0h1v1H13z M14,0h1v1H14z M15,0h1v1H15z M12,1h1v1H12z M11,2h1v1H11z M10,3h1v1H10z M9,4h1v1H9z M8,5h1v1H8z M2,6h1v1H2z M3,6h1v1H3z M7,6h1v1H7z M2,7h1v1H2z M4,7h1v1H4z M6,7h1v1H6z M3,8h1v1H3z M3,9h1v1H3z M6,9h1v1H6z M4,10h1v1H4z M0,13h1v1H0z M1,13h1v1H1z M0,14h1v1H0z" fill="#0e5e5a" /><path d="M13,1h1v1H13z M14,1h1v1H14z M14,2h1v1H14z M13,3h1v1H13z M9,5h1v1H9z M8,6h1v1H8z M5,9h1v1H5z" fill="#aafffa" /><path d="M15,1h1v1H15z M15,2h1v1H15z M14,3h1v1H14z M13,4h1v1H13z M11,6h1v1H11z M10,7h1v1H10z M5,8h1v1H5z M9,8h1v1H9z M8,9h1v1H8z M7,10h1v1H7z M5,11h1v1H5z M8,11h1v1H8z M6,12h1v1H6z M7,12h1v1H7z M9,12h1v1H9z M8,13h1v1H8z M9,13h1v1H9z M2,14h1v1H2z M0,15h1v1H0z M1,15h1v1H1z M2,15h1v1H2z" fill="#0e3e3a" /><path d="M12,2h1v1H12z M11,3h1v1H11z M10,4h1v1H10z" fill="#eaffff" /><path d="M13,2h1v1H13z M12,4h1v1H12z M11,5h1v1H11z M10,6h1v1H10z M7,7h1v1H7z M4,8h1v1H4z M6,8h1v1H6z" fill="#3aeada" /><path d="M12,3h1v1H12z M11,4h1v1H11z M10,5h1v1H10z M4,9h1v1H4z M6,10h1v1H6z" fill="#1acaba" /><path d="M12,5h1v1H12z" fill="#0e4a40" /><path d="M9,6h1v1H9z M8,7h1v1H8z M7,8h1v1H7z" fill="#1abaaa" /><path d="M3,7h1v1H3z M5,10h1v1H5z M1,14h1v1H1z" fill="#0e9a95" /><path d="M9,7h1v1H9z M8,8h1v1H8z M7,9h1v1H7z" fill="#35e0d0" /><path d="M3,11h1v1H3z M2,12h1v1H2z" fill="#493615" /><path d="M4,11h1v1H4z M2,13h1v1H2z" fill="#684e1e" /><path d="M6,11h1v1H6z M7,11h1v1H7z M8,12h1v1H8z" fill="#0e7e7a" /><path d="M3,12h1v1H3z" fill="#755a28" /><path d="M4,12h1v1H4z M3,13h1v1H3z" fill="#312118" /></svg>