<svg version="1.2" viewBox="0 0 16 16" xmlns="http://www.w3.org/2000/svg"><path d="M2,3h1v1H2z M3,3h1v1H3z M4,3h1v1H4z M5,3h1v1H5z M6,3h1v1H6z M7,3h1v1H7z M8,3h1v1H8z M9,3h1v1H9z M10,3h1v1H10z M11,3h1v1H11z M12,3h1v1H12z M13,3h1v1H13z M1,4h1v1H1z M14,4h1v1H14z M1,5h1v1H1z M6,5h1v1H6z M7,5h1v1H7z M8,5h1v1H8z M9,5h1v1H9z M14,5h1v1H14z M1,6h1v1H1z M14,6h1v1H14z M1,7h1v1H1z M6,7h1v1H6z M7,7h1v1H7z M8,7h1v1H8z M9,7h1v1H9z M1,8h1v1H1z M6,9h1v1H6z M7,9h1v1H7z M8,9h1v1H8z M9,9h1v1H9z" fill="#11727a" /><path d="M2,4h1v1H2z M3,4h1v1H3z M2,5h1v1H2z M11,6h1v1H11z M3,8h1v1H3z M3,9h1v1H3z" fill="#ffffff" /><path d="M4,4h1v1H4z M5,4h1v1H5z M10,4h1v1H10z M11,4h1v1H11z M12,5h1v1H12z M2,6h1v1H2z M5,6h1v1H5z M12,6h1v1H12z M2,7h1v1H2z M4,7h1v1H4z M11,7h1v1H11z M4,8h1v1H4z" fill="#d5fff6" /><path d="M6,4h1v1H6z M7,4h1v1H7z M8,4h1v1H8z M9,4h1v1H9z M12,4h1v1H12z M3,5h1v1H3z M4,5h1v1H4z M11,5h1v1H11z M3,6h1v1H3z M4,6h1v1H4z M6,6h1v1H6z M10,6h1v1H10z M3,7h1v1H3z M12,7h1v1H12z M2,8h1v1H2z M5,8h1v1H5z M9,8h1v1H9z M10,8h1v1H10z M11,8h1v1H11z M4,9h1v1H4z M3,10h1v1H3z" fill="#4aedda" /><path d="M13,4h1v1H13z M13,5h1v1H13z M7,6h1v1H7z M8,6h1v1H8z M9,6h1v1H9z M13,6h1v1H13z M6,8h1v1H6z M7,8h1v1H7z M8,8h1v1H8z M2,9h1v1H2z M2,10h1v1H2z M4,10h1v1H4z M5,10h1v1H5z M6,10h1v1H6z M7,10h1v1H7z M8,10h1v1H8z M9,10h1v1H9z M10,10h1v1H10z M5,11h1v1H5z" fill="#1acac5" /><path d="M5,5h1v1H5z M10,5h1v1H10z M5,7h1v1H5z M10,7h1v1H10z M5,9h1v1H5z M10,9h1v1H10z" fill="#119a9a" /><path d="M13,7h1v1H13z M12,8h1v1H12z M13,8h1v1H13z M11,9h1v1H11z M12,9h1v1H12z M11,10h1v1H11z" fill="#1ac0ba" /><path d="M14,7h1v1H14z M14,8h1v1H14z M1,9h1v1H1z M14,9h1v1H14z M1,10h1v1H1z M14,10h1v1H14z M2,11h1v1H2z M3,11h1v1H3z M4,11h1v1H4z M7,11h1v1H7z M8,11h1v1H8z M9,11h1v1H9z M10,11h1v1H10z M11,11h1v1H11z M12,11h1v1H12z M13,11h1v1H13z M4,12h1v1H4z M6,12h1v1H6z M4,13h1v1H4z M5,13h1v1H5z" fill="#0e5e5a" /><path d="M13,9h1v1H13z M12,10h1v1H12z M13,10h1v1H13z M6,11h1v1H6z M5,12h1v1H5z" fill="#1aaaa7" /></svg>