<svg version="1.2" viewBox="0 0 16 16" xmlns="http://www.w3.org/2000/svg"><path d="M5,2h1v1H5z M6,2h1v1H6z M4,3h1v1H4z M6,3h1v1H6z M3,4h1v1H3z M6,4h1v1H6z M2,5h1v1H2z M6,5h1v1H6z M7,5h1v1H7z M8,5h1v1H8z M9,5h1v1H9z M10,5h1v1H10z M11,5h1v1H11z M12,5h1v1H12z M13,5h1v1H13z M14,5h1v1H14z M15,5h1v1H15z M1,6h1v1H1z M15,6h1v1H15z M0,7h1v1H0z M0,8h1v1H0z M1,9h1v1H1z M2,10h1v1H2z" fill="#11727a" /><path d="M5,3h1v1H5z M4,4h1v1H4z M3,5h1v1H3z M2,6h1v1H2z M1,7h1v1H1z" fill="#ffffff" /><path d="M5,4h1v1H5z M4,5h1v1H4z M6,6h1v1H6z M7,6h1v1H7z M11,6h1v1H11z M12,6h1v1H12z M13,6h1v1H13z M1,8h1v1H1z M2,9h1v1H2z M3,10h1v1H3z M4,11h1v1H4z M5,12h1v1H5z" fill="#a4fdf0" /><path d="M5,5h1v1H5z M3,6h1v1H3z M14,6h1v1H14z M2,7h1v1H2z M5,7h1v1H5z M6,7h1v1H6z M7,7h1v1H7z M10,7h1v1H10z M11,7h1v1H11z M2,8h1v1H2z M4,8h1v1H4z M5,8h1v1H5z M6,8h1v1H6z M9,8h1v1H9z M10,8h1v1H10z M3,9h1v1H3z M5,9h1v1H5z M8,9h1v1H8z M9,9h1v1H9z M5,11h1v1H5z" fill="#4aedda" /><path d="M4,6h1v1H4z M5,6h1v1H5z M3,7h1v1H3z M4,7h1v1H4z M8,7h1v1H8z M9,7h1v1H9z M12,7h1v1H12z M13,7h1v1H13z M3,8h1v1H3z M7,8h1v1H7z M8,8h1v1H8z M11,8h1v1H11z M12,8h1v1H12z M4,9h1v1H4z M6,9h1v1H6z M7,9h1v1H7z M10,9h1v1H10z M4,10h1v1H4z M5,10h1v1H5z" fill="#1ad5c5" /><path d="M8,6h1v1H8z M9,6h1v1H9z M10,6h1v1H10z" fill="#caffff" /><path d="M14,7h1v1H14z M13,8h1v1H13z M14,8h1v1H14z M11,9h1v1H11z M12,9h1v1H12z M13,9h1v1H13z M14,9h1v1H14z" fill="#0eb5aa" /><path d="M15,7h1v1H15z M15,8h1v1H15z M15,9h1v1H15z M6,10h1v1H6z M7,10h1v1H7z M8,10h1v1H8z M9,10h1v1H9z M10,10h1v1H10z M11,10h1v1H11z M12,10h1v1H12z M13,10h1v1H13z M14,10h1v1H14z M15,10h1v1H15z M3,11h1v1H3z M6,11h1v1H6z M4,12h1v1H4z M6,12h1v1H6z M5,13h1v1H5z M6,13h1v1H6z" fill="#145e53" /></svg>