<svg version="1.2" viewBox="0 0 16 16" xmlns="http://www.w3.org/2000/svg"><path d="M12,1h1v1H12z M13,1h1v1H13z M14,1h1v1H14z M11,2h1v1H11z M10,3h1v1H10z M9,4h1v1H9z M8,5h1v1H8z M4,6h1v1H4z M5,6h1v1H5z M7,6h1v1H7z M4,7h1v1H4z M4,8h1v1H4z M5,9h1v1H5z M4,10h1v1H4z M2,11h1v1H2z M3,11h1v1H3z M2,12h1v1H2z" fill="#006500" /><path d="M12,2h1v1H12z M13,2h1v1H13z M11,3h1v1H11z M13,3h1v1H13z M6,8h1v1H6z" fill="#dbffeb" /><path d="M14,2h1v1H14z M14,3h1v1H14z M13,4h1v1H13z M12,5h1v1H12z M11,6h1v1H11z M6,7h1v1H6z M10,7h1v1H10z M9,8h1v1H9z M8,9h1v1H8z M6,10h1v1H6z M9,10h1v1H9z M5,11h1v1H5z M7,11h1v1H7z M8,11h1v1H8z M9,11h1v1H9z M4,12h1v1H4z M2,13h1v1H2z M3,13h1v1H3z M4,13h1v1H4z" fill="#004500" /><path d="M12,3h1v1H12z M9,7h1v1H9z M8,8h1v1H8z M5,10h1v1H5z" fill="#17dd62" /><path d="M10,4h1v1H10z M12,4h1v1H12z M9,5h1v1H9z M5,8h1v1H5z" fill="#affdcd" /><path d="M11,4h1v1H11z M10,5h1v1H10z M9,6h1v1H9z M7,10h1v1H7z M8,10h1v1H8z M4,11h1v1H4z M3,12h1v1H3z" fill="#00ba3a" /><path d="M11,5h1v1H11z M8,6h1v1H8z M10,6h1v1H10z M5,7h1v1H5z M7,7h1v1H7z M6,9h1v1H6z M7,9h1v1H7z" fill="#41f384" /><path d="M8,7h1v1H8z M7,8h1v1H7z" fill="#00952a" /></svg>