<svg version="1.2" viewBox="0 0 16 16" xmlns="http://www.w3.org/2000/svg"><path d="M2,2h1v1H2z M10,4h1v1H10z" fill="#74b44a" /><path d="M3,2h1v1H3z M11,2h1v1H11z" fill="#76b64c" /><path d="M4,2h1v1H4z M13,3h1v1H13z" fill="#73b349" /><path d="M5,2h1v1H5z M6,2h1v1H6z" fill="#66a63c" /><path d="M7,2h1v1H7z" fill="#6faf45" /><path d="M8,2h1v1H8z M10,3h1v1H10z M10,5h1v1H10z" fill="#5f9f35" /><path d="M9,2h1v1H9z M3,3h1v1H3z" fill="#6cac42" /><path d="M10,2h1v1H10z" fill="#7ebe54" /><path d="M12,2h1v1H12z" fill="#6aaa40" /><path d="M13,2h1v1H13z" fill="#67a73d" /><path d="M14,2h1v1H14z M6,4h1v1H6z" fill="#69a93f" /><path d="M2,3h1v1H2z" fill="#75b54b" /><path d="M4,3h1v1H4z" fill="#8ab95a" /><path d="M5,3h1v1H5z" fill="#81b051" /><path d="M6,3h1v1H6z" fill="#83b253" /><path d="M7,3h1v1H7z" fill="#5a3f2a" /><path d="M8,3h1v1H8z" fill="#68a83e" /><path d="M9,3h1v1H9z" fill="#62a238" /><path d="M11,3h1v1H11z" fill="#93c263" /><path d="M12,3h1v1H12z" fill="#90bf60" /><path d="M14,3h1v1H14z" fill="#61a137" /><path d="M2,4h1v1H2z" fill="#8dbc5d" /><path d="M3,4h1v1H3z" fill="#60432d" /><path d="M4,4h1v1H4z" fill="#9ccb6c" /><path d="M5,4h1v1H5z" fill="#64a43a" /><path d="M7,4h1v1H7z" fill="#553b28" /><path d="M8,4h1v1H8z" fill="#70b046" /><path d="M9,4h1v1H9z M8,5h1v1H8z" fill="#60422d" /><path d="M11,4h1v1H11z" fill="#7fbf55" /><path d="M12,4h1v1H12z" fill="#92c162" /><path d="M13,4h1v1H13z" fill="#97c667" /><path d="M14,4h1v1H14z" fill="#63452f" /><path d="M2,5h1v1H2z M10,6h1v1H10z" fill="#654730" /><path d="M3,5h1v1H3z M9,5h1v1H9z M9,8h1v1H9z M10,8h1v1H10z M10,10h1v1H10z M14,11h1v1H14z M5,12h1v1H5z M6,12h1v1H6z M9,12h1v1H9z M12,12h1v1H12z" fill="#a0734f" /><path d="M4,5h1v1H4z" fill="#5e422c" /><path d="M5,5h1v1H5z M12,6h1v1H12z" fill="#674831" /><path d="M6,5h1v1H6z" fill="#71b147" /><path d="M7,5h1v1H7z" fill="#593d29" /><path d="M11,5h1v1H11z" fill="#60442e" /><path d="M12,5h1v1H12z" fill="#6dad43" /><path d="M13,5h1v1H13z" fill="#64462f" /><path d="M14,5h1v1H14z M2,7h1v1H2z M3,10h1v1H3z M2,11h1v1H2z M4,13h1v1H4z M14,13h1v1H14z M2,14h1v1H2z M12,14h1v1H12z" fill="#694831" /><path d="M2,6h1v1H2z M13,6h1v1H13z M4,7h1v1H4z M7,7h1v1H7z M8,9h1v1H8z M12,9h1v1H12z M5,10h1v1H5z M7,10h1v1H7z M8,10h1v1H8z M12,10h1v1H12z M6,11h1v1H6z M3,12h1v1H3z M8,12h1v1H8z M5,13h1v1H5z M9,13h1v1H9z M11,13h1v1H11z M4,14h1v1H4z M7,14h1v1H7z" fill="#966c4a" /><path d="M3,6h1v1H3z M5,6h1v1H5z M9,6h1v1H9z M5,11h1v1H5z" fill="#a67752" /><path d="M4,6h1v1H4z M3,7h1v1H3z M9,7h1v1H9z M7,8h1v1H7z" fill="#8e6645" /><path d="M6,6h1v1H6z" fill="#5b3e2a" /><path d="M7,6h1v1H7z M13,9h1v1H13z M2,10h1v1H2z M11,10h1v1H11z M3,11h1v1H3z M10,12h1v1H10z M2,13h1v1H2z M6,13h1v1H6z M12,13h1v1H12z" fill="#815b3e" /><path d="M8,6h1v1H8z M11,7h1v1H11z M4,8h1v1H4z M2,9h1v1H2z M5,9h1v1H5z M13,10h1v1H13z M9,11h1v1H9z M11,11h1v1H11z M13,11h1v1H13z M13,14h1v1H13z" fill="#8d6545" /><path d="M11,6h1v1H11z M14,9h1v1H14z M14,10h1v1H14z M3,14h1v1H3z M11,14h1v1H11z" fill="#6f4e35" /><path d="M14,6h1v1H14z" fill="#61432d" /><path d="M5,7h1v1H5z M10,9h1v1H10z M14,12h1v1H14z M7,13h1v1H7z M6,14h1v1H6z" fill="#6a4a32" /><path d="M6,7h1v1H6z M8,8h1v1H8z M7,9h1v1H7z M9,9h1v1H9z M6,10h1v1H6z M7,11h1v1H7z" fill="#805a3d" /><path d="M8,7h1v1H8z" fill="#9d704d" /><path d="M10,7h1v1H10z" fill="#835d3f" /><path d="M12,7h1v1H12z M14,7h1v1H14z M3,8h1v1H3z M5,8h1v1H5z M11,8h1v1H11z M14,8h1v1H14z M4,10h1v1H4z M9,10h1v1H9z M8,11h1v1H8z M12,11h1v1H12z M4,12h1v1H4z M7,12h1v1H7z M8,13h1v1H8z M5,14h1v1H5z M9,14h1v1H9z M14,14h1v1H14z" fill="#79553a" /><path d="M13,7h1v1H13z" fill="#60422c" /><path d="M2,8h1v1H2z" fill="#745137" /><path d="M6,8h1v1H6z M11,9h1v1H11z" fill="#60412c" /><path d="M12,8h1v1H12z M4,9h1v1H4z" fill="#878787" /><path d="M13,8h1v1H13z" fill="#704e35" /><path d="M3,9h1v1H3z M2,12h1v1H2z M3,13h1v1H3z" fill="#62432d" /><path d="M6,9h1v1H6z" fill="#694931" /><path d="M4,11h1v1H4z M13,12h1v1H13z M10,14h1v1H10z" fill="#845e40" /><path d="M10,11h1v1H10z M10,13h1v1H10z" fill="#ae7d56" /><path d="M11,12h1v1H11z M8,14h1v1H8z" fill="#8b6243" /><path d="M13,13h1v1H13z" fill="#65462f" /></svg>