<svg version="1.2" viewBox="0 0 16 16" xmlns="http://www.w3.org/2000/svg"><path d="M6,1h1v1H6z M7,1h1v1H7z M8,1h1v1H8z M9,1h1v1H9z M4,2h1v1H4z M5,2h1v1H5z M10,2h1v1H10z M11,2h1v1H11z M3,3h1v1H3z M12,3h1v1H12z M2,4h1v1H2z M5,4h1v1H5z M6,4h1v1H6z M10,4h1v1H10z M13,4h1v1H13z M2,5h1v1H2z M4,5h1v1H4z M7,5h1v1H7z M9,5h1v1H9z M13,5h1v1H13z M1,6h1v1H1z M5,6h1v1H5z M8,6h1v1H8z M1,7h1v1H1z M6,7h1v1H6z M1,8h1v1H1z M5,8h1v1H5z M1,9h1v1H1z M4,9h1v1H4z M4,10h1v1H4z" fill="#7a0000" /><path d="M6,2h1v1H6z M4,3h1v1H4z M5,3h1v1H5z M3,4h1v1H3z M8,4h1v1H8z M3,5h1v1H3z M2,6h1v1H2z M12,7h1v1H12z M6,11h1v1H6z" fill="#ffbada" /><path d="M7,2h1v1H7z M8,2h1v1H8z M9,3h1v1H9z M13,6h1v1H13z M2,7h1v1H2z M2,8h1v1H2z M11,8h1v1H11z M7,10h1v1H7z M12,11h1v1H12z M5,12h1v1H5z M11,12h1v1H11z" fill="#ff8aaa" /><path d="M9,2h1v1H9z M6,3h1v1H6z M7,3h1v1H7z M10,3h1v1H10z M11,3h1v1H11z M4,4h1v1H4z M9,4h1v1H9z M12,4h1v1H12z M8,5h1v1H8z M3,6h1v1H3z M3,7h1v1H3z M13,7h1v1H13z M12,8h1v1H12z M2,9h1v1H2z M11,9h1v1H11z M13,9h1v1H13z M3,10h1v1H3z M12,10h1v1H12z M3,11h1v1H3z M7,11h1v1H7z M4,12h1v1H4z M6,12h1v1H6z M10,12h1v1H10z M7,13h1v1H7z M8,13h1v1H8z M9,13h1v1H9z" fill="#ff4a6a" /><path d="M8,3h1v1H8z M7,4h1v1H7z M11,4h1v1H11z M12,5h1v1H12z M4,6h1v1H4z M12,6h1v1H12z M4,7h1v1H4z M11,7h1v1H11z M3,8h1v1H3z M4,8h1v1H4z M10,8h1v1H10z M13,8h1v1H13z M3,9h1v1H3z M12,9h1v1H12z M4,11h1v1H4z M11,11h1v1H11z M7,12h1v1H7z M8,12h1v1H8z M9,12h1v1H9z M6,13h1v1H6z" fill="#da1a3a" /><path d="M11,5h1v1H11z M11,6h1v1H11z M14,6h1v1H14z M10,7h1v1H10z M14,7h1v1H14z M9,8h1v1H9z M14,8h1v1H14z M7,9h1v1H7z M10,9h1v1H10z M14,9h1v1H14z M2,10h1v1H2z M6,10h1v1H6z M8,10h1v1H8z M11,10h1v1H11z M13,10h1v1H13z M2,11h1v1H2z M5,11h1v1H5z M9,11h1v1H9z M10,11h1v1H10z M13,11h1v1H13z M3,12h1v1H3z M12,12h1v1H12z M4,13h1v1H4z M5,13h1v1H5z M10,13h1v1H10z M11,13h1v1H11z M6,14h1v1H6z M7,14h1v1H7z M8,14h1v1H8z M9,14h1v1H9z" fill="#5a0000" /><path d="M5,7h1v1H5z M8,11h1v1H8z" fill="#aa001a" /></svg>